<?xml version="1.0" encoding="UTF-8"?>
<svg xmlns="http://www.w3.org/2000/svg" viewBox="0 0 900 620" width="900" height="620">
  <defs>
    <marker id="arr" markerWidth="10" markerHeight="7" refX="10" refY="3.5" orient="auto">
      <polygon points="0 0, 10 3.5, 0 7" fill="#444"/>
    </marker>
    <style>
      text { font-family: 'Segoe UI', 'Helvetica Neue', Arial, sans-serif; }
      .title { font-size: 17px; font-weight: 700; fill: #1a1a1a; }
      .box-label { font-size: 12px; fill: #333; font-weight: 600; }
      .box-detail { font-size: 10px; fill: #555; }
      .output-label { font-size: 11px; fill: #1b5e20; font-weight: 700; }
      .output-detail { font-size: 10px; fill: #555; }
      .step-num { font-size: 9px; fill: #fff; font-weight: 700; }
      .note { font-size: 10px; fill: #777; font-style: italic; }
    </style>
  </defs>

  <!-- Title -->
  <text x="450" y="28" text-anchor="middle" class="title">Phase 3: Branching Strip Pipeline (13 Steps)</text>

  <!-- Input -->
  <rect x="350" y="45" width="200" height="34" rx="8" fill="#e3f2fd" stroke="#1565c0" stroke-width="2"/>
  <text x="450" y="67" text-anchor="middle" class="box-label">Original CDE JSON</text>

  <!-- Step 1-3: Instrument strips (fork into 3 + pass-through) -->
  <line x1="450" y1="79" x2="450" y2="95" stroke="#444" stroke-width="1.5"/>
  <line x1="450" y1="95" x2="150" y2="95" stroke="#444" stroke-width="1.5"/>
  <line x1="450" y1="95" x2="750" y2="95" stroke="#444" stroke-width="1.5"/>
  <line x1="150" y1="95" x2="150" y2="108" stroke="#444" stroke-width="1.5" marker-end="url(#arr)"/>
  <line x1="750" y1="95" x2="750" y2="108" stroke="#444" stroke-width="1.5" marker-end="url(#arr)"/>
  <line x1="450" y1="95" x2="450" y2="108" stroke="#444" stroke-width="1.5" marker-end="url(#arr)"/>

  <!-- Step 1: strip_MTSFPF (full inst) -->
  <rect x="50" y="110" width="200" height="40" rx="6" fill="#bbdefb" stroke="#1565c0" stroke-width="1.5"/>
  <circle cx="70" cy="130" r="10" fill="#1565c0"/>
  <text x="70" y="134" text-anchor="middle" class="step-num">1</text>
  <text x="160" y="127" text-anchor="middle" class="box-label">Strip Instruments (Full)</text>
  <text x="160" y="141" text-anchor="middle" class="box-detail">Remove complete instrument names</text>

  <!-- Step 2: strip_MFSTPF (sub inst) -->
  <rect x="650" y="110" width="200" height="40" rx="6" fill="#bbdefb" stroke="#1565c0" stroke-width="1.5"/>
  <circle cx="670" cy="130" r="10" fill="#1565c0"/>
  <text x="670" y="134" text-anchor="middle" class="step-num">2</text>
  <text x="760" y="127" text-anchor="middle" class="box-label">Strip Instruments (Sub)</text>
  <text x="760" y="141" text-anchor="middle" class="box-detail">Remove instrument prefix only</text>

  <!-- Center path: no instrument strip (phrase-only branch) -->
  <rect x="350" y="110" width="200" height="40" rx="6" fill="#f5f5f5" stroke="#999" stroke-width="1" stroke-dasharray="4,2"/>
  <text x="450" y="135" text-anchor="middle" class="box-detail">No instrument stripping</text>

  <!-- Step 3: sub_on_full (combined MTSTPT branch) -->
  <line x1="150" y1="150" x2="150" y2="162" stroke="#444" stroke-width="1"/>
  <line x1="150" y1="162" x2="310" y2="162" stroke="#444" stroke-width="1"/>
  <line x1="310" y1="162" x2="310" y2="170" stroke="#444" stroke-width="1" marker-end="url(#arr)"/>
  <rect x="250" y="172" width="120" height="30" rx="6" fill="#90caf9" stroke="#1565c0" stroke-width="1.5"/>
  <circle cx="268" cy="187" r="8" fill="#1565c0"/>
  <text x="268" y="191" text-anchor="middle" class="step-num" style="font-size:8px;">3</text>
  <text x="320" y="191" text-anchor="middle" class="box-detail" style="font-weight:600;">Sub on Full</text>

  <!-- Step 4: Temporal expansion (shared) -->
  <rect x="350" y="218" width="300" height="34" rx="6" fill="#fff9c4" stroke="#f9a825" stroke-width="2"/>
  <circle cx="370" cy="235" r="10" fill="#f9a825"/>
  <text x="370" y="239" text-anchor="middle" class="step-num">4</text>
  <text x="510" y="232" text-anchor="middle" class="box-label">Expand Temporal Seeds</text>
  <text x="510" y="246" text-anchor="middle" class="box-detail">25 seeds &#x2192; ~2,100 variants (case-insensitive)</text>

  <!-- Arrows down to temporal expansion -->
  <line x1="150" y1="150" x2="150" y2="208" stroke="#444" stroke-width="1"/>
  <line x1="150" y1="208" x2="420" y2="208" stroke="#444" stroke-width="1"/>
  <line x1="420" y1="208" x2="420" y2="216" stroke="#444" stroke-width="1" marker-end="url(#arr)"/>
  <line x1="450" y1="150" x2="450" y2="208" stroke="#444" stroke-width="1"/>
  <line x1="450" y1="208" x2="450" y2="216" stroke="#444" stroke-width="1" marker-end="url(#arr)"/>
  <line x1="750" y1="150" x2="750" y2="208" stroke="#444" stroke-width="1"/>
  <line x1="750" y1="208" x2="580" y2="208" stroke="#444" stroke-width="1"/>
  <line x1="580" y1="208" x2="580" y2="216" stroke="#444" stroke-width="1" marker-end="url(#arr)"/>
  <line x1="310" y1="202" x2="310" y2="208" stroke="#444" stroke-width="1"/>
  <line x1="310" y1="208" x2="370" y2="208" stroke="#444" stroke-width="1"/>

  <!-- Steps 5-8: Temporal strip (4 branches) -->
  <line x1="500" y1="252" x2="500" y2="266" stroke="#444" stroke-width="1.5"/>
  <line x1="500" y1="266" x2="120" y2="266" stroke="#444" stroke-width="1"/>
  <line x1="500" y1="266" x2="350" y2="266" stroke="#444" stroke-width="1"/>
  <line x1="500" y1="266" x2="620" y2="266" stroke="#444" stroke-width="1"/>
  <line x1="500" y1="266" x2="810" y2="266" stroke="#444" stroke-width="1"/>
  <line x1="120" y1="266" x2="120" y2="279" stroke="#444" stroke-width="1" marker-end="url(#arr)"/>
  <line x1="350" y1="266" x2="350" y2="279" stroke="#444" stroke-width="1" marker-end="url(#arr)"/>
  <line x1="620" y1="266" x2="620" y2="279" stroke="#444" stroke-width="1" marker-end="url(#arr)"/>
  <line x1="810" y1="266" x2="810" y2="279" stroke="#444" stroke-width="1" marker-end="url(#arr)"/>

  <rect x="30" y="281" width="180" height="36" rx="6" fill="#ffecb3" stroke="#f9a825" stroke-width="1.5"/>
  <circle cx="48" cy="299" r="10" fill="#f9a825"/>
  <text x="48" y="303" text-anchor="middle" class="step-num">5</text>
  <text x="130" y="296" text-anchor="middle" class="box-label">Temporal Strip</text>
  <text x="130" y="309" text-anchor="middle" class="box-detail">on raw input</text>

  <rect x="260" y="281" width="180" height="36" rx="6" fill="#ffecb3" stroke="#f9a825" stroke-width="1.5"/>
  <circle cx="278" cy="299" r="10" fill="#f9a825"/>
  <text x="278" y="303" text-anchor="middle" class="step-num">6</text>
  <text x="360" y="296" text-anchor="middle" class="box-label">Temporal Strip</text>
  <text x="360" y="309" text-anchor="middle" class="box-detail">on full-inst output</text>

  <rect x="490" y="281" width="180" height="36" rx="6" fill="#ffecb3" stroke="#f9a825" stroke-width="1.5"/>
  <circle cx="508" cy="299" r="10" fill="#f9a825"/>
  <text x="508" y="303" text-anchor="middle" class="step-num">7</text>
  <text x="590" y="296" text-anchor="middle" class="box-label">Temporal Strip</text>
  <text x="590" y="309" text-anchor="middle" class="box-detail">on sub-inst output</text>

  <rect x="710" y="281" width="180" height="36" rx="6" fill="#ffecb3" stroke="#f9a825" stroke-width="1.5"/>
  <circle cx="728" cy="299" r="10" fill="#f9a825"/>
  <text x="728" y="303" text-anchor="middle" class="step-num">8</text>
  <text x="810" y="296" text-anchor="middle" class="box-label">Temporal Strip</text>
  <text x="810" y="309" text-anchor="middle" class="box-detail">on full+sub output</text>

  <!-- Steps 9-12: Phrase strip (4 branches) -->
  <line x1="120" y1="317" x2="120" y2="346" stroke="#444" stroke-width="1.5" marker-end="url(#arr)"/>
  <line x1="350" y1="317" x2="350" y2="346" stroke="#444" stroke-width="1.5" marker-end="url(#arr)"/>
  <line x1="580" y1="317" x2="580" y2="346" stroke="#444" stroke-width="1.5" marker-end="url(#arr)"/>
  <line x1="800" y1="317" x2="800" y2="346" stroke="#444" stroke-width="1.5" marker-end="url(#arr)"/>

  <rect x="30" y="348" width="180" height="36" rx="6" fill="#e1bee7" stroke="#7b1fa2" stroke-width="1.5"/>
  <circle cx="48" cy="366" r="10" fill="#7b1fa2"/>
  <text x="48" y="370" text-anchor="middle" class="step-num">9</text>
  <text x="130" y="363" text-anchor="middle" class="box-label">Phrase Strip</text>
  <text x="130" y="376" text-anchor="middle" class="box-detail">case-sensitive</text>

  <rect x="260" y="348" width="180" height="36" rx="6" fill="#e1bee7" stroke="#7b1fa2" stroke-width="1.5"/>
  <circle cx="278" cy="366" r="10" fill="#7b1fa2"/>
  <text x="278" y="370" text-anchor="middle" class="step-num">10</text>
  <text x="360" y="363" text-anchor="middle" class="box-label">Phrase Strip</text>
  <text x="360" y="376" text-anchor="middle" class="box-detail">case-sensitive</text>

  <rect x="490" y="348" width="180" height="36" rx="6" fill="#e1bee7" stroke="#7b1fa2" stroke-width="1.5"/>
  <circle cx="508" cy="366" r="10" fill="#7b1fa2"/>
  <text x="508" y="370" text-anchor="middle" class="step-num">11</text>
  <text x="590" y="363" text-anchor="middle" class="box-label">Phrase Strip</text>
  <text x="590" y="376" text-anchor="middle" class="box-detail">case-sensitive</text>

  <rect x="710" y="348" width="180" height="36" rx="6" fill="#e1bee7" stroke="#7b1fa2" stroke-width="1.5"/>
  <circle cx="728" cy="366" r="10" fill="#7b1fa2"/>
  <text x="728" y="370" text-anchor="middle" class="step-num">12</text>
  <text x="810" y="363" text-anchor="middle" class="box-label">Phrase Strip</text>
  <text x="810" y="376" text-anchor="middle" class="box-detail">case-sensitive</text>

  <!-- Step 13: Quality Report -->
  <rect x="300" y="425" width="300" height="36" rx="8" fill="#f3e5f5" stroke="#7b1fa2" stroke-width="2"/>
  <circle cx="320" cy="443" r="10" fill="#7b1fa2"/>
  <text x="320" y="447" text-anchor="middle" class="step-num">13</text>
  <text x="460" y="448" text-anchor="middle" class="box-label">Quality Report: scan all outputs for remnants</text>

  <!-- Arrows from phrase strip to quality report -->
  <line x1="120" y1="384" x2="120" y2="405" stroke="#444" stroke-width="1"/>
  <line x1="350" y1="384" x2="350" y2="405" stroke="#444" stroke-width="1"/>
  <line x1="580" y1="384" x2="580" y2="405" stroke="#444" stroke-width="1"/>
  <line x1="800" y1="384" x2="800" y2="405" stroke="#444" stroke-width="1"/>
  <line x1="120" y1="405" x2="800" y2="405" stroke="#444" stroke-width="1"/>
  <line x1="450" y1="405" x2="450" y2="423" stroke="#444" stroke-width="1.5" marker-end="url(#arr)"/>

  <!-- 6 Outputs -->
  <text x="450" y="488" text-anchor="middle" class="title" style="font-size:14px;">6 Output Variants</text>

  <!-- Output boxes: width=120, gap=16 -->
  <rect x="26" y="500" width="120" height="50" rx="8" fill="#c8e6c9" stroke="#2e7d32" stroke-width="2"/>
  <text x="86" y="521" text-anchor="middle" class="output-label">MTSFPF</text>
  <text x="86" y="538" text-anchor="middle" class="output-detail">-515K chars</text>

  <rect x="162" y="500" width="120" height="50" rx="8" fill="#c8e6c9" stroke="#2e7d32" stroke-width="2"/>
  <text x="222" y="521" text-anchor="middle" class="output-label">MFSTPF</text>
  <text x="222" y="538" text-anchor="middle" class="output-detail">-415K chars</text>

  <rect x="298" y="500" width="120" height="50" rx="8" fill="#c8e6c9" stroke="#2e7d32" stroke-width="2"/>
  <text x="358" y="521" text-anchor="middle" class="output-label">MFSFPT</text>
  <text x="358" y="538" text-anchor="middle" class="output-detail">-105K chars</text>

  <rect x="434" y="500" width="120" height="50" rx="8" fill="#a5d6a7" stroke="#1b5e20" stroke-width="2"/>
  <text x="494" y="521" text-anchor="middle" class="output-label">MTSFPT</text>
  <text x="494" y="538" text-anchor="middle" class="output-detail">-553K chars</text>

  <rect x="570" y="500" width="120" height="50" rx="8" fill="#a5d6a7" stroke="#1b5e20" stroke-width="2"/>
  <text x="630" y="521" text-anchor="middle" class="output-label">MFSTPT</text>
  <text x="630" y="538" text-anchor="middle" class="output-detail">-449K chars</text>

  <rect x="706" y="500" width="120" height="50" rx="8" fill="#81c784" stroke="#1b5e20" stroke-width="2.5"/>
  <text x="766" y="521" text-anchor="middle" class="output-label">MTSTPT</text>
  <text x="766" y="538" text-anchor="middle" class="output-detail">maximum</text>

  <!-- Arrows from quality report to outputs -->
  <line x1="300" y1="461" x2="86"  y2="472" stroke="#444" stroke-width="1"/>
  <line x1="350" y1="461" x2="222" y2="472" stroke="#444" stroke-width="1"/>
  <line x1="400" y1="461" x2="358" y2="472" stroke="#444" stroke-width="1"/>
  <line x1="500" y1="461" x2="494" y2="472" stroke="#444" stroke-width="1"/>
  <line x1="550" y1="461" x2="630" y2="472" stroke="#444" stroke-width="1"/>
  <line x1="600" y1="461" x2="766" y2="472" stroke="#444" stroke-width="1"/>

  <line x1="86"  y1="472" x2="86"  y2="498" stroke="#2e7d32" stroke-width="1.5" marker-end="url(#arr)"/>
  <line x1="222" y1="472" x2="222" y2="498" stroke="#2e7d32" stroke-width="1.5" marker-end="url(#arr)"/>
  <line x1="358" y1="472" x2="358" y2="498" stroke="#2e7d32" stroke-width="1.5" marker-end="url(#arr)"/>
  <line x1="494" y1="472" x2="494" y2="498" stroke="#2e7d32" stroke-width="1.5" marker-end="url(#arr)"/>
  <line x1="630" y1="472" x2="630" y2="498" stroke="#2e7d32" stroke-width="1.5" marker-end="url(#arr)"/>
  <line x1="766" y1="472" x2="766" y2="498" stroke="#2e7d32" stroke-width="1.5" marker-end="url(#arr)"/>

  <!-- Notes -->
  <text x="450" y="580" text-anchor="middle" class="note">Temporal: case-insensitive (2,100 variants)  |  Curated phrases: case-sensitive (verbatim match)</text>
  <text x="450" y="598" text-anchor="middle" class="note">Production: 22,743 CDEs  |  Runtime: ~4.5 min  |  MTSTPT = full + sub instruments + phrases (maximum cleaning)</text>
</svg>
