<?xml version="1.0" encoding="UTF-8"?>
<svg xmlns="http://www.w3.org/2000/svg" viewBox="0 0 950 580" width="950" height="580">
  <defs>
    <marker id="aw" markerWidth="10" markerHeight="7" refX="10" refY="3.5" orient="auto">
      <polygon points="0 0, 10 3.5, 0 7" fill="#444"/>
    </marker>
    <marker id="aw-red" markerWidth="10" markerHeight="7" refX="10" refY="3.5" orient="auto">
      <polygon points="0 0, 10 3.5, 0 7" fill="#c62828"/>
    </marker>
    <style>
      text { font-family: 'Segoe UI', 'Helvetica Neue', Arial, sans-serif; }
      .title { font-size: 17px; font-weight: 700; fill: #1a1a1a; }
      .section-title { font-size: 13px; font-weight: 700; fill: #1565c0; }
      .box-label { font-size: 12px; fill: #333; font-weight: 600; }
      .box-detail { font-size: 10px; fill: #555; }
      .stat-label { font-size: 10px; fill: #333; font-weight: 600; }
      .note { font-size: 10px; fill: #777; font-style: italic; }
      .stage-bg { fill: #f5f5f5; stroke: #ccc; stroke-width: 1; stroke-dasharray: 6,3; }
    </style>
  </defs>

  <!-- Title -->
  <text x="475" y="28" text-anchor="middle" class="title">Two-Stage Multi-Curator Curation Workflow</text>

  <!-- Stage 1 background -->
  <rect x="15" y="42" width="920" height="260" rx="10" class="stage-bg"/>
  <text x="30" y="62" class="section-title">Stage 1: Independent Review</text>

  <!-- Init curation -->
  <rect x="30" y="78" width="180" height="50" rx="8" fill="#e3f2fd" stroke="#1565c0" stroke-width="2"/>
  <text x="120" y="100" text-anchor="middle" class="box-label">Initialize Curation</text>
  <text x="120" y="116" text-anchor="middle" class="box-detail">--init-curation FILE</text>

  <!-- Distribute -->
  <rect x="250" y="78" width="180" height="50" rx="8" fill="#e3f2fd" stroke="#1565c0" stroke-width="1.5"/>
  <text x="340" y="100" text-anchor="middle" class="box-label">Distribute</text>
  <text x="340" y="116" text-anchor="middle" class="box-detail">zipapp + curator TSV files</text>

  <line x1="210" y1="103" x2="248" y2="103" stroke="#444" stroke-width="1.5" marker-end="url(#aw)"/>

  <!-- 3 curator lanes -->
  <line x1="430" y1="103" x2="460" y2="103" stroke="#444" stroke-width="1.5"/>
  <line x1="460" y1="103" x2="460" y2="148" stroke="#444" stroke-width="1"/>
  <line x1="460" y1="148" x2="490" y2="148" stroke="#444" stroke-width="1" marker-end="url(#aw)"/>
  <line x1="460" y1="103" x2="490" y2="103" stroke="#444" stroke-width="1" marker-end="url(#aw)"/>
  <line x1="460" y1="103" x2="460" y2="58" stroke="#444" stroke-width="1"/>
  <line x1="460" y1="58" x2="490" y2="58" stroke="#444" stroke-width="1"/>
  <line x1="460" y1="58" x2="460" y2="73" stroke="#444" stroke-width="1"/>
  <!-- Adjust: curator boxes should be vertically stacked -->

  <!-- Curator A -->
  <rect x="490" y="68" width="200" height="34" rx="6" fill="#fff3e0" stroke="#e65100" stroke-width="1.5"/>
  <text x="590" y="90" text-anchor="middle" class="box-label" style="fill:#e65100;">Curator A (independent)</text>

  <!-- Curator B -->
  <rect x="490" y="113" width="200" height="34" rx="6" fill="#fff3e0" stroke="#e65100" stroke-width="1.5"/>
  <text x="590" y="135" text-anchor="middle" class="box-label" style="fill:#e65100;">Curator B (independent)</text>

  <!-- Curator C -->
  <rect x="490" y="158" width="200" height="34" rx="6" fill="#fff3e0" stroke="#e65100" stroke-width="1.5"/>
  <text x="590" y="180" text-anchor="middle" class="box-label" style="fill:#e65100;">Curator C (independent)</text>

  <!-- Fix arrows to curators -->
  <line x1="460" y1="85" x2="488" y2="85" stroke="#444" stroke-width="1" marker-end="url(#aw)"/>
  <line x1="460" y1="130" x2="488" y2="130" stroke="#444" stroke-width="1" marker-end="url(#aw)"/>
  <line x1="460" y1="175" x2="488" y2="175" stroke="#444" stroke-width="1" marker-end="url(#aw)"/>

  <!-- TSV Editor note -->
  <rect x="720" y="105" width="190" height="50" rx="6" fill="#e8eaf6" stroke="#3f51b5" stroke-width="1.5"/>
  <text x="815" y="125" text-anchor="middle" class="box-detail" style="font-weight:600; fill:#3f51b5;">TSV Editor</text>
  <text x="815" y="139" text-anchor="middle" class="box-detail">cde_editor.pyz</text>
  <text x="815" y="151" text-anchor="middle" class="box-detail">or centralized server</text>
  <line x1="690" y1="130" x2="718" y2="130" stroke="#3f51b5" stroke-width="1" stroke-dasharray="4,2"/>

  <!-- Merge -->
  <line x1="690" y1="85" x2="720" y2="85" stroke="#444" stroke-width="1"/>
  <line x1="690" y1="175" x2="720" y2="175" stroke="#444" stroke-width="1"/>
  <line x1="720" y1="85" x2="720" y2="175" stroke="#444" stroke-width="1"/>
  <line x1="720" y1="130" x2="720" y2="130" stroke="#444" stroke-width="1"/>

  <!-- Merge curation box -->
  <rect x="250" y="215" width="200" height="50" rx="8" fill="#e3f2fd" stroke="#1565c0" stroke-width="2"/>
  <text x="350" y="237" text-anchor="middle" class="box-label">Merge Curation</text>
  <text x="350" y="253" text-anchor="middle" class="box-detail">--merge-curation *.tsv</text>

  <!-- Arrows from curators to merge -->
  <line x1="590" y1="192" x2="590" y2="200" stroke="#444" stroke-width="1.5"/>
  <line x1="590" y1="200" x2="350" y2="200" stroke="#444" stroke-width="1.5"/>
  <line x1="350" y1="200" x2="350" y2="213" stroke="#444" stroke-width="1.5" marker-end="url(#aw)"/>

  <!-- Inter-rater stats -->
  <rect x="490" y="215" width="220" height="50" rx="6" fill="#e8f5e9" stroke="#2e7d32" stroke-width="1.5"/>
  <text x="600" y="234" text-anchor="middle" class="stat-label">Inter-Rater Statistics</text>
  <text x="600" y="248" text-anchor="middle" class="box-detail">Cohen's kappa  |  Fleiss' kappa</text>
  <text x="600" y="260" text-anchor="middle" class="box-detail">Krippendorff's alpha  |  Agreement %</text>

  <line x1="450" y1="240" x2="488" y2="240" stroke="#444" stroke-width="1" marker-end="url(#aw)"/>

  <!-- Outputs of merge -->
  <rect x="730" y="215" width="190" height="50" rx="6" fill="#fff" stroke="#999" stroke-width="1"/>
  <text x="825" y="234" text-anchor="middle" class="box-detail" style="font-weight:600;">Merge Outputs</text>
  <text x="825" y="248" text-anchor="middle" class="box-detail">consensus.tsv</text>
  <text x="825" y="260" text-anchor="middle" class="box-detail">discrepancies.tsv + diff HTML</text>

  <line x1="710" y1="240" x2="728" y2="240" stroke="#444" stroke-width="1" marker-end="url(#aw)"/>

  <!-- Stage 2 background -->
  <rect x="15" y="310" width="920" height="140" rx="10" class="stage-bg"/>
  <text x="30" y="330" class="section-title">Stage 2: Joint Review of Discrepancies</text>

  <!-- Decision diamond -->
  <polygon points="200,370 280,340 360,370 280,400" fill="#fff3e0" stroke="#e65100" stroke-width="2"/>
  <text x="280" y="367" text-anchor="middle" class="box-label" style="fill:#e65100; font-size:11px;">Agreement</text>
  <text x="280" y="381" text-anchor="middle" class="box-label" style="fill:#e65100; font-size:11px;">high?</text>

  <!-- Arrow from merge to decision -->
  <line x1="350" y1="265" x2="350" y2="290" stroke="#444" stroke-width="1.5"/>
  <line x1="350" y1="290" x2="280" y2="290" stroke="#444" stroke-width="1.5"/>
  <line x1="280" y1="290" x2="280" y2="338" stroke="#444" stroke-width="1.5" marker-end="url(#aw)"/>

  <!-- Yes path -->
  <text x="375" y="365" class="box-detail" style="fill:#2e7d32; font-weight:600;">Yes</text>
  <line x1="360" y1="370" x2="450" y2="370" stroke="#2e7d32" stroke-width="1.5" marker-end="url(#aw)"/>

  <rect x="452" y="350" width="200" height="40" rx="8" fill="#c8e6c9" stroke="#2e7d32" stroke-width="2"/>
  <text x="552" y="367" text-anchor="middle" class="box-label" style="fill:#1b5e20;">Accept Consensus</text>
  <text x="552" y="381" text-anchor="middle" class="box-detail">Use consensus.tsv directly</text>

  <!-- No path -->
  <text x="260" y="418" class="box-detail" style="fill:#c62828; font-weight:600;">No</text>
  <line x1="280" y1="400" x2="280" y2="425" stroke="#c62828" stroke-width="1.5" marker-end="url(#aw-red)"/>

  <rect x="180" y="427" width="200" height="40" rx="8" fill="#ffcdd2" stroke="#c62828" stroke-width="1.5"/>
  <text x="280" y="444" text-anchor="middle" class="box-label" style="fill:#c62828;">Joint Review Session</text>
  <text x="280" y="458" text-anchor="middle" class="box-detail">Screen share + shared editor</text>

  <line x1="380" y1="447" x2="452" y2="390" stroke="#444" stroke-width="1" marker-end="url(#aw)"/>

  <!-- Finalize -->
  <rect x="700" y="350" width="200" height="40" rx="8" fill="#e3f2fd" stroke="#1565c0" stroke-width="2"/>
  <text x="800" y="367" text-anchor="middle" class="box-label">Finalize Curation</text>
  <text x="800" y="381" text-anchor="middle" class="box-detail">--finalize-curation</text>

  <line x1="652" y1="370" x2="698" y2="370" stroke="#444" stroke-width="1.5" marker-end="url(#aw)"/>

  <!-- Ledger update -->
  <rect x="700" y="415" width="200" height="34" rx="6" fill="#e8f5e9" stroke="#2e7d32" stroke-width="2" stroke-dasharray="6,3"/>
  <text x="800" y="437" text-anchor="middle" class="box-label" style="fill:#2e7d32;">Update Curation Ledger</text>

  <line x1="800" y1="390" x2="800" y2="413" stroke="#2e7d32" stroke-width="1.5" marker-end="url(#aw)"/>

  <!-- Final output -->
  <rect x="350" y="485" width="250" height="44" rx="8" fill="#c8e6c9" stroke="#1b5e20" stroke-width="2"/>
  <text x="475" y="505" text-anchor="middle" class="box-label" style="fill:#1b5e20; font-size:13px;">curated.tsv</text>
  <text x="475" y="521" text-anchor="middle" class="box-detail">Ready for pipeline stripping phase</text>

  <line x1="800" y1="449" x2="800" y2="507" stroke="#444" stroke-width="1.5"/>
  <line x1="800" y1="507" x2="602" y2="507" stroke="#444" stroke-width="1.5" marker-end="url(#aw)"/>

  <!-- Ledger feedback note -->
  <text x="475" y="555" text-anchor="middle" class="note">Ledger auto-resolves returning patterns in future runs (keep decisions always auto-apply;</text>
  <text x="475" y="570" text-anchor="middle" class="note">remove/modify/substitute auto-apply only if affected CDEs unchanged)</text>
</svg>
