<?xml version="1.0" encoding="UTF-8"?>
<svg xmlns="http://www.w3.org/2000/svg" viewBox="0 0 700 620" width="700" height="620">
  <defs>
    <marker id="a" markerWidth="10" markerHeight="7" refX="10" refY="3.5" orient="auto">
      <polygon points="0 0, 10 3.5, 0 7" fill="#444"/>
    </marker>
    <marker id="a-loop" markerWidth="10" markerHeight="7" refX="10" refY="3.5" orient="auto">
      <polygon points="0 0, 10 3.5, 0 7" fill="#7b1fa2"/>
    </marker>
    <style>
      text { font-family: 'Segoe UI', 'Helvetica Neue', Arial, sans-serif; }
      .title { font-size: 17px; font-weight: 700; fill: #1a1a1a; }
      .box-label { font-size: 12px; fill: #333; font-weight: 600; }
      .box-detail { font-size: 10px; fill: #555; }
      .k-label { font-size: 14px; fill: #7b1fa2; font-weight: 700; }
      .note { font-size: 10px; fill: #777; font-style: italic; }
      .callout { font-size: 11px; fill: #1565c0; font-weight: 600; }
      .token { font-family: 'Consolas', 'Courier New', monospace; font-size: 11px; }
      .masked { fill: #ccc; text-decoration: line-through; }
    </style>
  </defs>

  <!-- Title -->
  <text x="350" y="28" text-anchor="middle" class="title">K-Mer Phrase Mining: Descending Loop with Masking</text>

  <!-- Input -->
  <rect x="200" y="48" width="300" height="36" rx="8" fill="#e3f2fd" stroke="#1565c0" stroke-width="2"/>
  <text x="350" y="71" text-anchor="middle" class="box-label">CDE Text Fields (inst-stripped)</text>

  <line x1="350" y1="84" x2="350" y2="106" stroke="#444" stroke-width="1.5" marker-end="url(#a)"/>

  <!-- K-value banner -->
  <rect x="120" y="108" width="460" height="32" rx="6" fill="#f3e5f5" stroke="#7b1fa2" stroke-width="2"/>
  <text x="350" y="129" text-anchor="middle" class="k-label">for k = k_max (90) down to k_min (3):</text>

  <line x1="350" y1="140" x2="350" y2="160" stroke="#444" stroke-width="1.5" marker-end="url(#a)"/>

  <!-- Step 1: Count -->
  <rect x="210" y="162" width="280" height="40" rx="6" fill="#fff" stroke="#90caf9" stroke-width="1.5"/>
  <circle cx="230" cy="182" r="12" fill="#1565c0"/>
  <text x="230" y="186" text-anchor="middle" style="font-size:10px; fill:#fff; font-weight:700;">1</text>
  <text x="360" y="179" text-anchor="middle" class="box-label">Count k-token sequences</text>
  <text x="360" y="193" text-anchor="middle" class="box-detail">in unmasked text regions only</text>

  <line x1="350" y1="202" x2="350" y2="220" stroke="#444" stroke-width="1.5" marker-end="url(#a)"/>

  <!-- Step 2: Filter -->
  <rect x="210" y="222" width="280" height="40" rx="6" fill="#fff" stroke="#90caf9" stroke-width="1.5"/>
  <circle cx="230" cy="242" r="12" fill="#1565c0"/>
  <text x="230" y="246" text-anchor="middle" style="font-size:10px; fill:#fff; font-weight:700;">2</text>
  <text x="360" y="239" text-anchor="middle" class="box-label">Filter by frequency + CDE count</text>
  <text x="360" y="253" text-anchor="middle" class="box-detail">min_parent_tinyids threshold</text>

  <line x1="350" y1="262" x2="350" y2="280" stroke="#444" stroke-width="1.5" marker-end="url(#a)"/>

  <!-- Step 3: Match -->
  <rect x="210" y="282" width="280" height="40" rx="6" fill="#fff" stroke="#90caf9" stroke-width="1.5"/>
  <circle cx="230" cy="302" r="12" fill="#1565c0"/>
  <text x="230" y="306" text-anchor="middle" style="font-size:10px; fill:#fff; font-weight:700;">3</text>
  <text x="360" y="299" text-anchor="middle" class="box-label">Match with Aho-Corasick</text>
  <text x="360" y="313" text-anchor="middle" class="box-detail">Multi-pattern automaton (O(n) scan)</text>

  <line x1="350" y1="322" x2="350" y2="340" stroke="#444" stroke-width="1.5" marker-end="url(#a)"/>

  <!-- Step 4: Mask -->
  <rect x="210" y="342" width="280" height="40" rx="6" fill="#fff9c4" stroke="#f9a825" stroke-width="2"/>
  <circle cx="230" cy="362" r="12" fill="#f9a825"/>
  <text x="230" y="366" text-anchor="middle" style="font-size:10px; fill:#fff; font-weight:700;">4</text>
  <text x="360" y="359" text-anchor="middle" class="box-label">Mask detected positions</text>
  <text x="360" y="373" text-anchor="middle" class="box-detail">Prevents re-detection at smaller k</text>

  <!-- Loop arrow back -->
  <path d="M 490 362 L 560 362 L 560 125 L 490 125" stroke="#7b1fa2" stroke-width="2" fill="none" stroke-dasharray="6,3" marker-end="url(#a-loop)"/>
  <text x="575" y="245" class="k-label" style="font-size:12px;" transform="rotate(-90 575 245)">k = k - 1</text>

  <!-- Callout: high-k free -->
  <rect x="20" y="158" width="170" height="50" rx="6" fill="#e8f5e9" stroke="#2e7d32" stroke-width="1.5"/>
  <text x="105" y="177" text-anchor="middle" class="callout" style="fill:#2e7d32; font-size:10px;">k=90..30: zero hits</text>
  <text x="105" y="191" text-anchor="middle" class="box-detail" style="fill:#2e7d32;">= nearly free passes</text>
  <text x="105" y="203" text-anchor="middle" class="box-detail" style="fill:#2e7d32;">(milliseconds each)</text>
  <line x1="190" y1="182" x2="208" y2="182" stroke="#2e7d32" stroke-width="1" stroke-dasharray="3,2"/>

  <!-- Callout: cost concentrates -->
  <rect x="20" y="230" width="170" height="40" rx="6" fill="#fff3e0" stroke="#e65100" stroke-width="1.5"/>
  <text x="105" y="249" text-anchor="middle" class="callout" style="fill:#e65100; font-size:10px;">k&#x2248;25..3: hits appear</text>
  <text x="105" y="263" text-anchor="middle" class="box-detail" style="fill:#e65100;">Execution cost here</text>
  <line x1="190" y1="250" x2="208" y2="250" stroke="#e65100" stroke-width="1" stroke-dasharray="3,2"/>

  <!-- Masking example -->
  <rect x="40" y="405" width="620" height="95" rx="8" fill="#fafafa" stroke="#ccc" stroke-width="1"/>
  <text x="60" y="425" class="box-label">Masking Example (text field of a CDE):</text>

  <!-- Before -->
  <text x="60" y="448" class="box-detail" style="font-weight:600;">Before (k=25 pass):</text>
  <text x="60" y="466" class="token" fill="#333">"In the past 7 days, </text>
  <text x="218" y="466" class="token" fill="#333">how often did you feel </text>
  <text x="395" y="466" class="token" fill="#7b1fa2" style="font-weight:700;">Patient Health Questionnaire</text>
  <text x="618" y="466" class="token" fill="#333">..."</text>

  <!-- After -->
  <text x="60" y="486" class="box-detail" style="font-weight:600;">After (k=25 detected + masked):</text>
  <text x="60" y="504" class="token" fill="#333">"In the past 7 days, </text>
  <text x="218" y="504" class="token" fill="#333">how often did you feel </text>
  <rect x="392" y="491" width="224" height="18" rx="3" fill="#e0e0e0"/>
  <text x="504" y="504" text-anchor="middle" class="token masked" style="fill:#999;">&#x2588;&#x2588;&#x2588; MASKED &#x2588;&#x2588;&#x2588;</text>
  <text x="622" y="504" class="token" fill="#333">..."</text>

  <!-- Outputs -->
  <rect x="200" y="525" width="300" height="40" rx="8" fill="#c8e6c9" stroke="#2e7d32" stroke-width="2"/>
  <text x="350" y="542" text-anchor="middle" class="box-label" style="fill:#1b5e20;">Detected Phrases + tinyId Sets</text>
  <text x="350" y="556" text-anchor="middle" class="box-detail">Verbatim surface forms preserved</text>

  <line x1="350" y1="382" x2="350" y2="395" stroke="#444" stroke-width="1.5"/>
  <line x1="350" y1="500" x2="350" y2="523" stroke="#444" stroke-width="1.5" marker-end="url(#a)"/>

  <!-- Key parameters -->
  <rect x="40" y="580" width="620" height="28" rx="4" fill="#f5f5f5" stroke="#999" stroke-width="1"/>
  <text x="350" y="599" text-anchor="middle" class="note">Key parameters: k_max (90 recommended) | k_min (3) | min_parent_tinyids (most influential) | min_tokens (2-3)</text>
</svg>
