<?xml version="1.0" encoding="UTF-8" standalone="no"?>
<!DOCTYPE svg PUBLIC "-//W3C//DTD SVG 1.1//EN"
 "http://www.w3.org/Graphics/SVG/1.1/DTD/svg11.dtd">
<!-- Generated by graphviz version 2.43.0 (0)
 -->
<!-- Title: CDE_Core_Schema Pages: 1 -->
<svg width="949pt" height="1697pt"
 viewBox="0.00 0.00 948.60 1696.60" xmlns="http://www.w3.org/2000/svg" xmlns:xlink="http://www.w3.org/1999/xlink">
<g id="graph0" class="graph" transform="scale(1 1) rotate(0) translate(28.8 1667.8)">
<title>CDE_Core_Schema</title>
<polygon fill="white" stroke="transparent" points="-28.8,28.8 -28.8,-1667.8 919.8,-1667.8 919.8,28.8 -28.8,28.8"/>
<text text-anchor="middle" x="445.5" y="-1626.2" font-family="Helvetica,sans-Serif" font-size="11.00">CDE Core Data Model</text>
<!-- ValueDomain -->
<g id="node1" class="node">
<title>ValueDomain</title>
<polygon fill="#1e8e3e" stroke="transparent" points="71,-696 71,-723 368,-723 368,-696 71,-696"/>
<polygon fill="none" stroke="black" points="71,-696 71,-723 368,-723 368,-696 71,-696"/>
<text text-anchor="start" x="175" y="-707.4" font-family="Helvetica,sans-Serif" font-weight="bold" font-size="12.00" fill="white">ValueDomain</text>
<polygon fill="none" stroke="black" points="71,-671 71,-696 216,-696 216,-671 71,-671"/>
<text text-anchor="start" x="78" y="-681" font-family="Helvetica,sans-Serif" font-size="10.00">datatype</text>
<polygon fill="none" stroke="black" points="216,-671 216,-696 368,-696 368,-671 216,-671"/>
<text text-anchor="start" x="223" y="-681" font-family="Helvetica,sans-Serif" font-size="10.00" fill="#888888">str?</text>
<polygon fill="none" stroke="black" points="71,-646 71,-671 216,-671 216,-646 71,-646"/>
<text text-anchor="start" x="78" y="-656" font-family="Helvetica,sans-Serif" font-size="10.00">datatypeDate</text>
<polygon fill="none" stroke="black" points="216,-646 216,-671 368,-671 368,-646 216,-646"/>
<text text-anchor="start" x="223" y="-656" font-family="Helvetica,sans-Serif" font-size="10.00" fill="#888888">DatatypeDate?</text>
<polygon fill="none" stroke="black" points="71,-621 71,-646 216,-646 216,-621 71,-621"/>
<text text-anchor="start" x="78" y="-631" font-family="Helvetica,sans-Serif" font-size="10.00">datatypeDynamicCodeList</text>
<polygon fill="none" stroke="black" points="216,-621 216,-646 368,-646 368,-621 216,-621"/>
<text text-anchor="start" x="223" y="-631" font-family="Helvetica,sans-Serif" font-size="10.00" fill="#888888">DatatypeDynamicCodeList?</text>
<polygon fill="none" stroke="black" points="71,-596 71,-621 216,-621 216,-596 71,-596"/>
<text text-anchor="start" x="78" y="-606" font-family="Helvetica,sans-Serif" font-size="10.00">datatypeExternallyDefined</text>
<polygon fill="none" stroke="black" points="216,-596 216,-621 368,-621 368,-596 216,-596"/>
<text text-anchor="start" x="223" y="-606" font-family="Helvetica,sans-Serif" font-size="10.00" fill="#888888">DatatypeExternallyDefined?</text>
<polygon fill="none" stroke="black" points="71,-571 71,-596 216,-596 216,-571 71,-571"/>
<text text-anchor="start" x="78" y="-581" font-family="Helvetica,sans-Serif" font-size="10.00">datatypeNumber</text>
<polygon fill="none" stroke="black" points="216,-571 216,-596 368,-596 368,-571 216,-571"/>
<text text-anchor="start" x="223" y="-581" font-family="Helvetica,sans-Serif" font-size="10.00" fill="#888888">DatatypeNumber?</text>
<polygon fill="none" stroke="black" points="71,-546 71,-571 216,-571 216,-546 71,-546"/>
<text text-anchor="start" x="78" y="-556" font-family="Helvetica,sans-Serif" font-size="10.00">datatypeText</text>
<polygon fill="none" stroke="black" points="216,-546 216,-571 368,-571 368,-546 216,-546"/>
<text text-anchor="start" x="223" y="-556" font-family="Helvetica,sans-Serif" font-size="10.00" fill="#888888">DatatypeText?</text>
<polygon fill="none" stroke="black" points="71,-521 71,-546 216,-546 216,-521 71,-521"/>
<text text-anchor="start" x="78" y="-531" font-family="Helvetica,sans-Serif" font-size="10.00">datatypeTime</text>
<polygon fill="none" stroke="black" points="216,-521 216,-546 368,-546 368,-521 216,-521"/>
<text text-anchor="start" x="223" y="-531" font-family="Helvetica,sans-Serif" font-size="10.00" fill="#888888">DatatypeTime?</text>
<polygon fill="none" stroke="black" points="71,-496 71,-521 216,-521 216,-496 71,-496"/>
<text text-anchor="start" x="78" y="-506" font-family="Helvetica,sans-Serif" font-size="10.00">datatypeValueList</text>
<polygon fill="none" stroke="black" points="216,-496 216,-521 368,-521 368,-496 216,-496"/>
<text text-anchor="start" x="223" y="-506" font-family="Helvetica,sans-Serif" font-size="10.00" fill="#888888">DatatypeValueList?</text>
<polygon fill="none" stroke="black" points="71,-471 71,-496 216,-496 216,-471 71,-471"/>
<text text-anchor="start" x="78" y="-481" font-family="Helvetica,sans-Serif" font-size="10.00">definition</text>
<polygon fill="none" stroke="black" points="216,-471 216,-496 368,-496 368,-471 216,-471"/>
<text text-anchor="start" x="223" y="-481" font-family="Helvetica,sans-Serif" font-size="10.00" fill="#888888">str?</text>
<polygon fill="none" stroke="black" points="71,-446 71,-471 216,-471 216,-446 71,-446"/>
<text text-anchor="start" x="78" y="-457" font-family="Helvetica,sans-Serif" font-weight="bold" font-size="10.00" fill="#1e8e3e">identifiers</text>
<polygon fill="none" stroke="black" points="216,-446 216,-471 368,-471 368,-446 216,-446"/>
<text text-anchor="start" x="223" y="-456" font-family="Helvetica,sans-Serif" font-size="10.00" fill="#1e8e3e">List[Identifier]?</text>
<polygon fill="none" stroke="black" points="71,-421 71,-446 216,-446 216,-421 71,-421"/>
<text text-anchor="start" x="78" y="-432" font-family="Helvetica,sans-Serif" font-weight="bold" font-size="10.00" fill="#1e8e3e">ids</text>
<polygon fill="none" stroke="black" points="216,-421 216,-446 368,-446 368,-421 216,-421"/>
<text text-anchor="start" x="223" y="-431" font-family="Helvetica,sans-Serif" font-size="10.00" fill="#1e8e3e">List[Identifier]?</text>
<polygon fill="none" stroke="black" points="71,-396 71,-421 216,-421 216,-396 71,-396"/>
<text text-anchor="start" x="78" y="-406" font-family="Helvetica,sans-Serif" font-size="10.00">name</text>
<polygon fill="none" stroke="black" points="216,-396 216,-421 368,-421 368,-396 216,-396"/>
<text text-anchor="start" x="223" y="-406" font-family="Helvetica,sans-Serif" font-size="10.00" fill="#888888">str?</text>
<polygon fill="none" stroke="black" points="71,-371 71,-396 216,-396 216,-371 71,-371"/>
<text text-anchor="start" x="78" y="-382" font-family="Helvetica,sans-Serif" font-weight="bold" font-size="10.00" fill="#1e8e3e">permissibleValues</text>
<polygon fill="none" stroke="black" points="216,-371 216,-396 368,-396 368,-371 216,-371"/>
<text text-anchor="start" x="223" y="-381" font-family="Helvetica,sans-Serif" font-size="10.00" fill="#1e8e3e">List[PermissibleValue]?</text>
<polygon fill="none" stroke="black" points="71,-346 71,-371 216,-371 216,-346 71,-346"/>
<text text-anchor="start" x="78" y="-356" font-family="Helvetica,sans-Serif" font-size="10.00">uom</text>
<polygon fill="none" stroke="black" points="216,-346 216,-371 368,-371 368,-346 216,-346"/>
<text text-anchor="start" x="223" y="-356" font-family="Helvetica,sans-Serif" font-size="10.00" fill="#888888">str?</text>
<polygon fill="none" stroke="black" points="71,-321 71,-346 216,-346 216,-321 71,-321"/>
<text text-anchor="start" x="78" y="-331" font-family="Helvetica,sans-Serif" font-size="10.00">vsacOid</text>
<polygon fill="none" stroke="black" points="216,-321 216,-346 368,-346 368,-321 216,-321"/>
<text text-anchor="start" x="223" y="-331" font-family="Helvetica,sans-Serif" font-size="10.00" fill="#888888">str?</text>
</g>
<!-- PermissibleValue -->
<g id="node3" class="node">
<title>PermissibleValue</title>
<polygon fill="#c5221f" stroke="transparent" points="8,-203.5 8,-230.5 172,-230.5 172,-203.5 8,-203.5"/>
<polygon fill="none" stroke="black" points="8,-203.5 8,-230.5 172,-230.5 172,-203.5 8,-203.5"/>
<text text-anchor="start" x="31.5" y="-214.9" font-family="Helvetica,sans-Serif" font-weight="bold" font-size="12.00" fill="white">PermissibleValue</text>
<polygon fill="none" stroke="black" points="8,-178.5 8,-203.5 139,-203.5 139,-178.5 8,-178.5"/>
<text text-anchor="start" x="15" y="-188.5" font-family="Helvetica,sans-Serif" font-size="10.00">codeSystemName</text>
<polygon fill="none" stroke="black" points="139,-178.5 139,-203.5 172,-203.5 172,-178.5 139,-178.5"/>
<text text-anchor="start" x="146" y="-188.5" font-family="Helvetica,sans-Serif" font-size="10.00" fill="#888888">str?</text>
<polygon fill="none" stroke="black" points="8,-153.5 8,-178.5 139,-178.5 139,-153.5 8,-153.5"/>
<text text-anchor="start" x="15" y="-163.5" font-family="Helvetica,sans-Serif" font-size="10.00">codeSystemVersion</text>
<polygon fill="none" stroke="black" points="139,-153.5 139,-178.5 172,-178.5 172,-153.5 139,-153.5"/>
<text text-anchor="start" x="146" y="-163.5" font-family="Helvetica,sans-Serif" font-size="10.00" fill="#888888">str?</text>
<polygon fill="none" stroke="black" points="8,-128.5 8,-153.5 139,-153.5 139,-128.5 8,-128.5"/>
<text text-anchor="start" x="15" y="-138.5" font-family="Helvetica,sans-Serif" font-size="10.00">permissibleValue</text>
<polygon fill="none" stroke="black" points="139,-128.5 139,-153.5 172,-153.5 172,-128.5 139,-128.5"/>
<text text-anchor="start" x="146" y="-138.5" font-family="Helvetica,sans-Serif" font-size="10.00" fill="#888888">str?</text>
<polygon fill="none" stroke="black" points="8,-103.5 8,-128.5 139,-128.5 139,-103.5 8,-103.5"/>
<text text-anchor="start" x="15" y="-113.5" font-family="Helvetica,sans-Serif" font-size="10.00">valueMeaningCode</text>
<polygon fill="none" stroke="black" points="139,-103.5 139,-128.5 172,-128.5 172,-103.5 139,-103.5"/>
<text text-anchor="start" x="146" y="-113.5" font-family="Helvetica,sans-Serif" font-size="10.00" fill="#888888">str?</text>
<polygon fill="none" stroke="black" points="8,-78.5 8,-103.5 139,-103.5 139,-78.5 8,-78.5"/>
<text text-anchor="start" x="15" y="-88.5" font-family="Helvetica,sans-Serif" font-size="10.00">valueMeaningDefinition</text>
<polygon fill="none" stroke="black" points="139,-78.5 139,-103.5 172,-103.5 172,-78.5 139,-78.5"/>
<text text-anchor="start" x="146" y="-88.5" font-family="Helvetica,sans-Serif" font-size="10.00" fill="#888888">str?</text>
<polygon fill="none" stroke="black" points="8,-53.5 8,-78.5 139,-78.5 139,-53.5 8,-53.5"/>
<text text-anchor="start" x="15" y="-63.5" font-family="Helvetica,sans-Serif" font-size="10.00">valueMeaningName</text>
<polygon fill="none" stroke="black" points="139,-53.5 139,-78.5 172,-78.5 172,-53.5 139,-53.5"/>
<text text-anchor="start" x="146" y="-63.5" font-family="Helvetica,sans-Serif" font-size="10.00" fill="#888888">str?</text>
<polygon fill="none" stroke="black" points="8,-28.5 8,-53.5 139,-53.5 139,-28.5 8,-28.5"/>
<text text-anchor="start" x="15" y="-38.5" font-family="Helvetica,sans-Serif" font-size="10.00">conceptId</text>
<polygon fill="none" stroke="black" points="139,-28.5 139,-53.5 172,-53.5 172,-28.5 139,-28.5"/>
<text text-anchor="start" x="146" y="-38.5" font-family="Helvetica,sans-Serif" font-size="10.00" fill="#888888">str?</text>
<polygon fill="none" stroke="black" points="8,-3.5 8,-28.5 139,-28.5 139,-3.5 8,-3.5"/>
<text text-anchor="start" x="15" y="-13.5" font-family="Helvetica,sans-Serif" font-size="10.00">conceptSource</text>
<polygon fill="none" stroke="black" points="139,-3.5 139,-28.5 172,-28.5 172,-3.5 139,-3.5"/>
<text text-anchor="start" x="146" y="-13.5" font-family="Helvetica,sans-Serif" font-size="10.00" fill="#888888">str?</text>
</g>
<!-- ValueDomain&#45;&gt;PermissibleValue -->
<g id="edge3" class="edge">
<title>ValueDomain:permissibleValues&#45;&gt;PermissibleValue</title>
<path fill="none" stroke="#555555" d="M70,-383C10.55,-383 16.15,-315.73 36.31,-249.04"/>
<polygon fill="#555555" stroke="#555555" points="38.25,-242.91 44.09,-236.37 39.45,-239.1 40.66,-235.28 40.66,-235.28 40.66,-235.28 39.45,-239.1 37.23,-234.2 38.25,-242.91 38.25,-242.91"/>
<ellipse fill="none" stroke="#555555" cx="37.28" cy="-245.96" rx="3.2" ry="3.2"/>
<text text-anchor="middle" x="44.5" y="-273.8" font-family="Helvetica,sans-Serif" font-size="9.00"> &#160;1..* &#160;</text>
</g>
<!-- Identifier -->
<g id="node4" class="node">
<title>Identifier</title>
<polygon fill="#7627bb" stroke="transparent" points="231,-141.5 231,-168.5 315,-168.5 315,-141.5 231,-141.5"/>
<polygon fill="none" stroke="black" points="231,-141.5 231,-168.5 315,-168.5 315,-141.5 231,-141.5"/>
<text text-anchor="start" x="241.5" y="-152.9" font-family="Helvetica,sans-Serif" font-weight="bold" font-size="12.00" fill="white">Identifier</text>
<polygon fill="none" stroke="black" points="231,-116.5 231,-141.5 282,-141.5 282,-116.5 231,-116.5"/>
<text text-anchor="start" x="238" y="-126.5" font-family="Helvetica,sans-Serif" font-size="10.00">id</text>
<polygon fill="none" stroke="black" points="282,-116.5 282,-141.5 315,-141.5 315,-116.5 282,-116.5"/>
<text text-anchor="start" x="289" y="-126.5" font-family="Helvetica,sans-Serif" font-size="10.00" fill="#888888">str?</text>
<polygon fill="none" stroke="black" points="231,-91.5 231,-116.5 282,-116.5 282,-91.5 231,-91.5"/>
<text text-anchor="start" x="238" y="-101.5" font-family="Helvetica,sans-Serif" font-size="10.00">source</text>
<polygon fill="none" stroke="black" points="282,-91.5 282,-116.5 315,-116.5 315,-91.5 282,-91.5"/>
<text text-anchor="start" x="289" y="-101.5" font-family="Helvetica,sans-Serif" font-size="10.00" fill="#888888">str?</text>
<polygon fill="none" stroke="black" points="231,-66.5 231,-91.5 282,-91.5 282,-66.5 231,-66.5"/>
<text text-anchor="start" x="238" y="-76.5" font-family="Helvetica,sans-Serif" font-size="10.00">version</text>
<polygon fill="none" stroke="black" points="282,-66.5 282,-91.5 315,-91.5 315,-66.5 282,-66.5"/>
<text text-anchor="start" x="289" y="-76.5" font-family="Helvetica,sans-Serif" font-size="10.00" fill="#888888">str?</text>
</g>
<!-- ValueDomain&#45;&gt;Identifier -->
<g id="edge1" class="edge">
<title>ValueDomain:identifiers&#45;&gt;Identifier</title>
<path fill="none" stroke="#555555" d="M70,-458C7.33,-458 40.54,-371.77 71,-317 71.13,-316.77 200.81,-235.19 201,-235 215.41,-220.46 228.27,-202.52 239,-185.11"/>
<polygon fill="#555555" stroke="#555555" points="242.34,-179.47 249.52,-174.43 244.38,-176.03 246.42,-172.59 246.42,-172.59 246.42,-172.59 244.38,-176.03 243.32,-170.75 242.34,-179.47 242.34,-179.47"/>
<ellipse fill="none" stroke="#555555" cx="240.71" cy="-182.22" rx="3.2" ry="3.2"/>
<text text-anchor="middle" x="158.5" y="-273.8" font-family="Helvetica,sans-Serif" font-size="9.00"> &#160;1..* &#160;</text>
</g>
<!-- ValueDomain&#45;&gt;Identifier -->
<g id="edge2" class="edge">
<title>ValueDomain:ids&#45;&gt;Identifier</title>
<path fill="none" stroke="#555555" d="M70,-433C18.44,-433 40.45,-358.53 71,-317 101.98,-274.88 142.61,-314.2 183,-281 212.97,-256.36 234.65,-218.99 249.21,-186.3"/>
<polygon fill="#555555" stroke="#555555" points="251.89,-179.98 258.33,-174.03 253.46,-176.3 255.02,-172.62 255.02,-172.62 255.02,-172.62 253.46,-176.3 251.71,-171.21 251.89,-179.98 251.89,-179.98"/>
<ellipse fill="none" stroke="#555555" cx="250.64" cy="-182.93" rx="3.2" ry="3.2"/>
<text text-anchor="middle" x="205.5" y="-273.8" font-family="Helvetica,sans-Serif" font-size="9.00"> &#160;1..* &#160;</text>
</g>
<!-- CDEItem -->
<g id="node2" class="node">
<title>CDEItem</title>
<polygon fill="#1a73e8" stroke="transparent" points="476,-1588 476,-1615 737,-1615 737,-1588 476,-1588"/>
<polygon fill="none" stroke="black" points="476,-1588 476,-1615 737,-1615 737,-1588 476,-1588"/>
<text text-anchor="start" x="577" y="-1599.4" font-family="Helvetica,sans-Serif" font-weight="bold" font-size="12.00" fill="white">CDEItem</text>
<polygon fill="none" stroke="black" points="476,-1563 476,-1588 593,-1588 593,-1563 476,-1563"/>
<text text-anchor="start" x="483" y="-1573" font-family="Helvetica,sans-Serif" font-size="10.00">x_id</text>
<polygon fill="none" stroke="black" points="593,-1563 593,-1588 737,-1588 737,-1563 593,-1563"/>
<text text-anchor="start" x="600" y="-1573" font-family="Helvetica,sans-Serif" font-size="10.00" fill="#888888">str?</text>
<polygon fill="none" stroke="black" points="476,-1538 476,-1563 593,-1563 593,-1538 476,-1538"/>
<text text-anchor="start" x="483" y="-1548" font-family="Helvetica,sans-Serif" font-size="10.00">nihEndorsed</text>
<polygon fill="none" stroke="black" points="593,-1538 593,-1563 737,-1563 737,-1538 593,-1538"/>
<text text-anchor="start" x="600" y="-1548" font-family="Helvetica,sans-Serif" font-size="10.00" fill="#888888">bool?</text>
<polygon fill="none" stroke="black" points="476,-1513 476,-1538 593,-1538 593,-1513 476,-1513"/>
<text text-anchor="start" x="483" y="-1523" font-family="Helvetica,sans-Serif" font-size="10.00">tinyId</text>
<polygon fill="none" stroke="black" points="593,-1513 593,-1538 737,-1538 737,-1513 593,-1513"/>
<text text-anchor="start" x="600" y="-1523" font-family="Helvetica,sans-Serif" font-size="10.00" fill="#888888">str?</text>
<polygon fill="none" stroke="black" points="476,-1488 476,-1513 593,-1513 593,-1488 476,-1488"/>
<text text-anchor="start" x="483" y="-1498" font-family="Helvetica,sans-Serif" font-size="10.00">x__v</text>
<polygon fill="none" stroke="black" points="593,-1488 593,-1513 737,-1513 737,-1488 593,-1488"/>
<text text-anchor="start" x="600" y="-1498" font-family="Helvetica,sans-Serif" font-size="10.00" fill="#888888">int?</text>
<polygon fill="none" stroke="black" points="476,-1463 476,-1488 593,-1488 593,-1463 476,-1463"/>
<text text-anchor="start" x="483" y="-1473" font-family="Helvetica,sans-Serif" font-size="10.00">elementType</text>
<polygon fill="none" stroke="black" points="593,-1463 593,-1488 737,-1488 737,-1463 593,-1463"/>
<text text-anchor="start" x="600" y="-1473" font-family="Helvetica,sans-Serif" font-size="10.00" fill="#888888">str?</text>
<polygon fill="none" stroke="black" points="476,-1438 476,-1463 593,-1463 593,-1438 476,-1438"/>
<text text-anchor="start" x="483" y="-1448" font-family="Helvetica,sans-Serif" font-size="10.00">archived</text>
<polygon fill="none" stroke="black" points="593,-1438 593,-1463 737,-1463 737,-1438 593,-1438"/>
<text text-anchor="start" x="600" y="-1448" font-family="Helvetica,sans-Serif" font-size="10.00" fill="#888888">bool?</text>
<polygon fill="none" stroke="black" points="476,-1413 476,-1438 593,-1438 593,-1413 476,-1413"/>
<text text-anchor="start" x="483" y="-1423" font-family="Helvetica,sans-Serif" font-size="10.00">views</text>
<polygon fill="none" stroke="black" points="593,-1413 593,-1438 737,-1438 737,-1413 593,-1413"/>
<text text-anchor="start" x="600" y="-1423" font-family="Helvetica,sans-Serif" font-size="10.00" fill="#888888">int?</text>
<polygon fill="none" stroke="black" points="476,-1388 476,-1413 593,-1413 593,-1388 476,-1388"/>
<text text-anchor="start" x="483" y="-1398" font-family="Helvetica,sans-Serif" font-size="10.00">sources</text>
<polygon fill="none" stroke="black" points="593,-1388 593,-1413 737,-1413 737,-1388 593,-1388"/>
<text text-anchor="start" x="600" y="-1398" font-family="Helvetica,sans-Serif" font-size="10.00" fill="#888888">List[Source]?</text>
<polygon fill="none" stroke="black" points="476,-1363 476,-1388 593,-1388 593,-1363 476,-1363"/>
<text text-anchor="start" x="483" y="-1373" font-family="Helvetica,sans-Serif" font-size="10.00">origin</text>
<polygon fill="none" stroke="black" points="593,-1363 593,-1388 737,-1388 737,-1363 593,-1363"/>
<text text-anchor="start" x="600" y="-1373" font-family="Helvetica,sans-Serif" font-size="10.00" fill="#888888">str?</text>
<polygon fill="none" stroke="black" points="476,-1338 476,-1363 593,-1363 593,-1338 476,-1338"/>
<text text-anchor="start" x="483" y="-1348" font-family="Helvetica,sans-Serif" font-size="10.00">imported</text>
<polygon fill="none" stroke="black" points="593,-1338 593,-1363 737,-1363 737,-1338 593,-1338"/>
<text text-anchor="start" x="600" y="-1348" font-family="Helvetica,sans-Serif" font-size="10.00" fill="#888888">str?</text>
<polygon fill="none" stroke="black" points="476,-1313 476,-1338 593,-1338 593,-1313 476,-1313"/>
<text text-anchor="start" x="483" y="-1323" font-family="Helvetica,sans-Serif" font-size="10.00">created</text>
<polygon fill="none" stroke="black" points="593,-1313 593,-1338 737,-1338 737,-1313 593,-1313"/>
<text text-anchor="start" x="600" y="-1323" font-family="Helvetica,sans-Serif" font-size="10.00" fill="#888888">str?</text>
<polygon fill="none" stroke="black" points="476,-1288 476,-1313 593,-1313 593,-1288 476,-1288"/>
<text text-anchor="start" x="483" y="-1298" font-family="Helvetica,sans-Serif" font-size="10.00">createdBy</text>
<polygon fill="none" stroke="black" points="593,-1288 593,-1313 737,-1313 737,-1288 593,-1288"/>
<text text-anchor="start" x="600" y="-1298" font-family="Helvetica,sans-Serif" font-size="10.00" fill="#888888">CreatedBy?</text>
<polygon fill="none" stroke="black" points="476,-1263 476,-1288 593,-1288 593,-1263 476,-1263"/>
<text text-anchor="start" x="483" y="-1273" font-family="Helvetica,sans-Serif" font-size="10.00">updated</text>
<polygon fill="none" stroke="black" points="593,-1263 593,-1288 737,-1288 737,-1263 593,-1263"/>
<text text-anchor="start" x="600" y="-1273" font-family="Helvetica,sans-Serif" font-size="10.00" fill="#888888">str?</text>
<polygon fill="none" stroke="black" points="476,-1238 476,-1263 593,-1263 593,-1238 476,-1238"/>
<text text-anchor="start" x="483" y="-1248" font-family="Helvetica,sans-Serif" font-size="10.00">updatedBy</text>
<polygon fill="none" stroke="black" points="593,-1238 593,-1263 737,-1263 737,-1238 593,-1238"/>
<text text-anchor="start" x="600" y="-1248" font-family="Helvetica,sans-Serif" font-size="10.00" fill="#888888">UpdatedBy?</text>
<polygon fill="none" stroke="black" points="476,-1213 476,-1238 593,-1238 593,-1213 476,-1213"/>
<text text-anchor="start" x="483" y="-1223" font-family="Helvetica,sans-Serif" font-size="10.00">stewardOrg</text>
<polygon fill="none" stroke="black" points="593,-1213 593,-1238 737,-1238 737,-1213 593,-1213"/>
<text text-anchor="start" x="600" y="-1223" font-family="Helvetica,sans-Serif" font-size="10.00" fill="#888888">StewardOrg?</text>
<polygon fill="none" stroke="black" points="476,-1188 476,-1213 593,-1213 593,-1188 476,-1188"/>
<text text-anchor="start" x="483" y="-1198" font-family="Helvetica,sans-Serif" font-size="10.00">usedByOrgs</text>
<polygon fill="none" stroke="black" points="593,-1188 593,-1213 737,-1213 737,-1188 593,-1188"/>
<text text-anchor="start" x="600" y="-1198" font-family="Helvetica,sans-Serif" font-size="10.00" fill="#888888">List[str]?</text>
<polygon fill="none" stroke="black" points="476,-1163 476,-1188 593,-1188 593,-1163 476,-1163"/>
<text text-anchor="start" x="483" y="-1173" font-family="Helvetica,sans-Serif" font-size="10.00">formElements</text>
<polygon fill="none" stroke="black" points="593,-1163 593,-1188 737,-1188 737,-1163 593,-1163"/>
<text text-anchor="start" x="600" y="-1173" font-family="Helvetica,sans-Serif" font-size="10.00" fill="#888888">List[FormElement]?</text>
<polygon fill="none" stroke="black" points="476,-1138 476,-1163 593,-1163 593,-1138 476,-1138"/>
<text text-anchor="start" x="483" y="-1148" font-family="Helvetica,sans-Serif" font-size="10.00">registrationState</text>
<polygon fill="none" stroke="black" points="593,-1138 593,-1163 737,-1163 737,-1138 593,-1138"/>
<text text-anchor="start" x="600" y="-1148" font-family="Helvetica,sans-Serif" font-size="10.00" fill="#888888">RegistrationState?</text>
<polygon fill="none" stroke="black" points="476,-1113 476,-1138 593,-1138 593,-1113 476,-1113"/>
<text text-anchor="start" x="483" y="-1123" font-family="Helvetica,sans-Serif" font-size="10.00">lastMigrationScript</text>
<polygon fill="none" stroke="black" points="593,-1113 593,-1138 737,-1138 737,-1113 593,-1113"/>
<text text-anchor="start" x="600" y="-1123" font-family="Helvetica,sans-Serif" font-size="10.00" fill="#888888">str?</text>
<polygon fill="none" stroke="black" points="476,-1088 476,-1113 593,-1113 593,-1088 476,-1088"/>
<text text-anchor="start" x="483" y="-1099" font-family="Helvetica,sans-Serif" font-weight="bold" font-size="10.00" fill="#1a73e8">designations</text>
<polygon fill="none" stroke="black" points="593,-1088 593,-1113 737,-1113 737,-1088 593,-1088"/>
<text text-anchor="start" x="600" y="-1098" font-family="Helvetica,sans-Serif" font-size="10.00" fill="#1a73e8">List[Designation]?</text>
<polygon fill="none" stroke="black" points="476,-1063 476,-1088 593,-1088 593,-1063 476,-1063"/>
<text text-anchor="start" x="483" y="-1074" font-family="Helvetica,sans-Serif" font-weight="bold" font-size="10.00" fill="#1a73e8">definitions</text>
<polygon fill="none" stroke="black" points="593,-1063 593,-1088 737,-1088 737,-1063 593,-1063"/>
<text text-anchor="start" x="600" y="-1073" font-family="Helvetica,sans-Serif" font-size="10.00" fill="#1a73e8">List[Definition]?</text>
<polygon fill="none" stroke="black" points="476,-1038 476,-1063 593,-1063 593,-1038 476,-1038"/>
<text text-anchor="start" x="483" y="-1049" font-family="Helvetica,sans-Serif" font-weight="bold" font-size="10.00" fill="#1a73e8">valueDomain</text>
<polygon fill="none" stroke="black" points="593,-1038 593,-1063 737,-1063 737,-1038 593,-1038"/>
<text text-anchor="start" x="600" y="-1048" font-family="Helvetica,sans-Serif" font-size="10.00" fill="#1a73e8">ValueDomain?</text>
<polygon fill="none" stroke="black" points="476,-1013 476,-1038 593,-1038 593,-1013 476,-1013"/>
<text text-anchor="start" x="483" y="-1023" font-family="Helvetica,sans-Serif" font-size="10.00">classification</text>
<polygon fill="none" stroke="black" points="593,-1013 593,-1038 737,-1038 737,-1013 593,-1013"/>
<text text-anchor="start" x="600" y="-1023" font-family="Helvetica,sans-Serif" font-size="10.00" fill="#888888">List[Classification]?</text>
<polygon fill="none" stroke="black" points="476,-988 476,-1013 593,-1013 593,-988 476,-988"/>
<text text-anchor="start" x="483" y="-998" font-family="Helvetica,sans-Serif" font-size="10.00">referenceDocuments</text>
<polygon fill="none" stroke="black" points="593,-988 593,-1013 737,-1013 737,-988 593,-988"/>
<text text-anchor="start" x="600" y="-998" font-family="Helvetica,sans-Serif" font-size="10.00" fill="#888888">List[ReferenceDocument]?</text>
<polygon fill="none" stroke="black" points="476,-963 476,-988 593,-988 593,-963 476,-963"/>
<text text-anchor="start" x="483" y="-973" font-family="Helvetica,sans-Serif" font-size="10.00">properties</text>
<polygon fill="none" stroke="black" points="593,-963 593,-988 737,-988 737,-963 593,-963"/>
<text text-anchor="start" x="600" y="-973" font-family="Helvetica,sans-Serif" font-size="10.00" fill="#888888">List[Property]?</text>
<polygon fill="none" stroke="black" points="476,-938 476,-963 593,-963 593,-938 476,-938"/>
<text text-anchor="start" x="483" y="-949" font-family="Helvetica,sans-Serif" font-weight="bold" font-size="10.00" fill="#1a73e8">ids</text>
<polygon fill="none" stroke="black" points="593,-938 593,-963 737,-963 737,-938 593,-938"/>
<text text-anchor="start" x="600" y="-948" font-family="Helvetica,sans-Serif" font-size="10.00" fill="#1a73e8">List[Identifier]?</text>
<polygon fill="none" stroke="black" points="476,-913 476,-938 593,-938 593,-913 476,-913"/>
<text text-anchor="start" x="483" y="-923" font-family="Helvetica,sans-Serif" font-size="10.00">attachments</text>
<polygon fill="none" stroke="black" points="593,-913 593,-938 737,-938 737,-913 593,-913"/>
<text text-anchor="start" x="600" y="-923" font-family="Helvetica,sans-Serif" font-size="10.00" fill="#888888">List[Attachment]?</text>
<polygon fill="none" stroke="black" points="476,-888 476,-913 593,-913 593,-888 476,-888"/>
<text text-anchor="start" x="483" y="-898" font-family="Helvetica,sans-Serif" font-size="10.00">comments</text>
<polygon fill="none" stroke="black" points="593,-888 593,-913 737,-913 737,-888 593,-888"/>
<text text-anchor="start" x="600" y="-898" font-family="Helvetica,sans-Serif" font-size="10.00" fill="#888888">List[Comment]?</text>
<polygon fill="none" stroke="black" points="476,-863 476,-888 593,-888 593,-863 476,-863"/>
<text text-anchor="start" x="483" y="-873" font-family="Helvetica,sans-Serif" font-size="10.00">dataSets</text>
<polygon fill="none" stroke="black" points="593,-863 593,-888 737,-888 737,-863 593,-863"/>
<text text-anchor="start" x="600" y="-873" font-family="Helvetica,sans-Serif" font-size="10.00" fill="#888888">List[DataSet]?</text>
<polygon fill="none" stroke="black" points="476,-838 476,-863 593,-863 593,-838 476,-838"/>
<text text-anchor="start" x="483" y="-848" font-family="Helvetica,sans-Serif" font-size="10.00">history</text>
<polygon fill="none" stroke="black" points="593,-838 593,-863 737,-863 737,-838 593,-838"/>
<text text-anchor="start" x="600" y="-848" font-family="Helvetica,sans-Serif" font-size="10.00" fill="#888888">List[str]?</text>
<polygon fill="none" stroke="black" points="476,-813 476,-838 593,-838 593,-813 476,-813"/>
<text text-anchor="start" x="483" y="-823" font-family="Helvetica,sans-Serif" font-size="10.00">derivationRules</text>
<polygon fill="none" stroke="black" points="593,-813 593,-838 737,-838 737,-813 593,-813"/>
<text text-anchor="start" x="600" y="-823" font-family="Helvetica,sans-Serif" font-size="10.00" fill="#888888">List[DerivationRule]?</text>
</g>
<!-- CDEItem&#45;&gt;ValueDomain -->
<g id="edge6" class="edge">
<title>CDEItem:valueDomain&#45;&gt;ValueDomain</title>
<path fill="none" stroke="#555555" stroke-dasharray="5,2" d="M475,-1050C327.88,-1050 265.28,-881.77 238.66,-735.41"/>
<polygon fill="#555555" stroke="#555555" points="237.19,-727.13 242.14,-734.38 237.89,-731.07 238.59,-735.01 238.59,-735.01 238.59,-735.01 237.89,-731.07 235.05,-735.64 237.19,-727.13 237.19,-727.13"/>
<text text-anchor="middle" x="255.5" y="-765.8" font-family="Helvetica,sans-Serif" font-size="9.00"> &#160;1 &#160;</text>
</g>
<!-- CDEItem&#45;&gt;Identifier -->
<g id="edge7" class="edge">
<title>CDEItem:ids&#45;&gt;Identifier</title>
<path fill="none" stroke="#555555" d="M475,-950C333.27,-950 444.33,-450.59 397,-317 380.24,-269.69 350.78,-221.81 324.78,-184.94"/>
<polygon fill="#555555" stroke="#555555" points="320.78,-179.37 319.04,-170.77 318.45,-176.12 316.12,-172.87 316.12,-172.87 316.12,-172.87 318.45,-176.12 313.19,-174.97 320.78,-179.37 320.78,-179.37"/>
<ellipse fill="none" stroke="#555555" cx="322.65" cy="-181.97" rx="3.2" ry="3.2"/>
<text text-anchor="middle" x="424.5" y="-519.8" font-family="Helvetica,sans-Serif" font-size="9.00"> &#160;1..* &#160;</text>
</g>
<!-- Designation -->
<g id="node5" class="node">
<title>Designation</title>
<polygon fill="#e8a817" stroke="transparent" points="543,-546 543,-573 672,-573 672,-546 543,-546"/>
<polygon fill="none" stroke="black" points="543,-546 543,-573 672,-573 672,-546 543,-546"/>
<text text-anchor="start" x="567" y="-557.4" font-family="Helvetica,sans-Serif" font-weight="bold" font-size="12.00" fill="white">Designation</text>
<polygon fill="none" stroke="black" points="543,-521 543,-546 615,-546 615,-521 543,-521"/>
<text text-anchor="start" x="550" y="-531" font-family="Helvetica,sans-Serif" font-size="10.00">designation</text>
<polygon fill="none" stroke="black" points="615,-521 615,-546 672,-546 672,-521 615,-521"/>
<text text-anchor="start" x="622" y="-531" font-family="Helvetica,sans-Serif" font-size="10.00" fill="#888888">str?</text>
<polygon fill="none" stroke="black" points="543,-496 543,-521 615,-521 615,-496 543,-496"/>
<text text-anchor="start" x="550" y="-506" font-family="Helvetica,sans-Serif" font-size="10.00">sources</text>
<polygon fill="none" stroke="black" points="615,-496 615,-521 672,-521 672,-496 615,-496"/>
<text text-anchor="start" x="622" y="-506" font-family="Helvetica,sans-Serif" font-size="10.00" fill="#888888">List[str]?</text>
<polygon fill="none" stroke="black" points="543,-471 543,-496 615,-496 615,-471 543,-471"/>
<text text-anchor="start" x="550" y="-481" font-family="Helvetica,sans-Serif" font-size="10.00">tags</text>
<polygon fill="none" stroke="black" points="615,-471 615,-496 672,-496 672,-471 615,-471"/>
<text text-anchor="start" x="622" y="-481" font-family="Helvetica,sans-Serif" font-size="10.00" fill="#888888">List[str]?</text>
</g>
<!-- CDEItem&#45;&gt;Designation -->
<g id="edge4" class="edge">
<title>CDEItem:designations&#45;&gt;Designation</title>
<path fill="none" stroke="#555555" d="M475,-1100C345.67,-1100 446.07,-934.82 476,-809 480.14,-791.6 486.31,-789.15 494,-773 523.15,-711.74 554.84,-641.25 577.23,-590.77"/>
<polygon fill="#555555" stroke="#555555" points="579.9,-584.73 586.43,-578.87 581.52,-581.07 583.14,-577.41 583.14,-577.41 583.14,-577.41 581.52,-581.07 579.85,-575.96 579.9,-584.73 579.9,-584.73"/>
<ellipse fill="none" stroke="#555555" cx="578.61" cy="-587.66" rx="3.2" ry="3.2"/>
<text text-anchor="middle" x="512.5" y="-765.8" font-family="Helvetica,sans-Serif" font-size="9.00"> &#160;1..* &#160;</text>
</g>
<!-- Definition -->
<g id="node6" class="node">
<title>Definition</title>
<polygon fill="#e8a817" stroke="transparent" points="731,-558 731,-585 883,-585 883,-558 731,-558"/>
<polygon fill="none" stroke="black" points="731,-558 731,-585 883,-585 883,-558 731,-558"/>
<text text-anchor="start" x="774" y="-569.4" font-family="Helvetica,sans-Serif" font-weight="bold" font-size="12.00" fill="white">Definition</text>
<polygon fill="none" stroke="black" points="731,-533 731,-558 826,-558 826,-533 731,-533"/>
<text text-anchor="start" x="738" y="-543" font-family="Helvetica,sans-Serif" font-size="10.00">definition</text>
<polygon fill="none" stroke="black" points="826,-533 826,-558 883,-558 883,-533 826,-533"/>
<text text-anchor="start" x="833" y="-543" font-family="Helvetica,sans-Serif" font-size="10.00" fill="#888888">str?</text>
<polygon fill="none" stroke="black" points="731,-508 731,-533 826,-533 826,-508 731,-508"/>
<text text-anchor="start" x="738" y="-518" font-family="Helvetica,sans-Serif" font-size="10.00">definitionFormat</text>
<polygon fill="none" stroke="black" points="826,-508 826,-533 883,-533 883,-508 826,-508"/>
<text text-anchor="start" x="833" y="-518" font-family="Helvetica,sans-Serif" font-size="10.00" fill="#888888">str?</text>
<polygon fill="none" stroke="black" points="731,-483 731,-508 826,-508 826,-483 731,-483"/>
<text text-anchor="start" x="738" y="-493" font-family="Helvetica,sans-Serif" font-size="10.00">sources</text>
<polygon fill="none" stroke="black" points="826,-483 826,-508 883,-508 883,-483 826,-483"/>
<text text-anchor="start" x="833" y="-493" font-family="Helvetica,sans-Serif" font-size="10.00" fill="#888888">List[str]?</text>
<polygon fill="none" stroke="black" points="731,-458 731,-483 826,-483 826,-458 731,-458"/>
<text text-anchor="start" x="738" y="-468" font-family="Helvetica,sans-Serif" font-size="10.00">tags</text>
<polygon fill="none" stroke="black" points="826,-458 826,-483 883,-483 883,-458 826,-458"/>
<text text-anchor="start" x="833" y="-468" font-family="Helvetica,sans-Serif" font-size="10.00" fill="#888888">List[str]?</text>
</g>
<!-- CDEItem&#45;&gt;Definition -->
<g id="edge5" class="edge">
<title>CDEItem:definitions&#45;&gt;Definition</title>
<path fill="none" stroke="#555555" d="M475,-1075C356.78,-1075 408.03,-905.73 476,-809 506.6,-765.46 661.01,-762.11 701,-727 738.27,-694.28 764.33,-645.26 781.28,-603.48"/>
<polygon fill="#555555" stroke="#555555" points="783.67,-597.36 789.93,-591.22 785.13,-593.63 786.58,-589.91 786.58,-589.91 786.58,-589.91 785.13,-593.63 783.23,-588.6 783.67,-597.36 783.67,-597.36"/>
<ellipse fill="none" stroke="#555555" cx="782.51" cy="-600.34" rx="3.2" ry="3.2"/>
<text text-anchor="middle" x="605.5" y="-765.8" font-family="Helvetica,sans-Serif" font-size="9.00"> &#160;1..* &#160;</text>
</g>
</g>
</svg>
