<?xml version="1.0" encoding="UTF-8"?>
<svg id="Layer_1" xmlns="http://www.w3.org/2000/svg" version="1.1" viewBox="0 0 820 1338">
  <!-- Generator: Adobe Illustrator 30.2.1, SVG Export Plug-In . SVG Version: 2.1.1 Build 1)  -->
  <text transform="translate(276.97 28)" fill="#1a1a1a" font-family="Arial-BoldMT, Arial" font-size="18" font-weight="700" isolation="isolate"><tspan x="0" y="0">Detailed Workflow Architecture</tspan></text>
  <rect x="260" y="45" width="300" height="40" fill="#dcfce7" stroke="#22c55e" stroke-width="2"/>
  <text transform="translate(365.38 70)" fill="#333" font-family="Arial-BoldMT, Arial" font-size="11" font-weight="700" isolation="isolate"><tspan x="0" y="0">INPUT: cdes.json</tspan></text>
  <path d="" fill="none"/>
  <polygon points="417 92 410 112 403 92 417 92" fill="#666"/>
  <path d="M410,110" fill="#666"/>
  <rect x="40" y="110" width="740" height="746" fill="#eff6ff" stroke="#2563eb" stroke-width="2"/>
  <rect x="40" y="110" width="740" height="28" fill="#2563eb" stroke="#2563eb" stroke-width="2"/>
  <text transform="translate(287.49 129)" fill="#fff" font-family="Arial-BoldMT, Arial" font-size="14" font-weight="700" isolation="isolate"><tspan x="0" y="0">PHASE 1: INSTRUMENT DETECTION</tspan></text>
  <rect x="70" y="150" width="500" height="36" fill="#f8fafc" stroke="#cbd5e1"/>
  <text transform="translate(85 168)" fill="#333" font-family="Arial-BoldMT, Arial" font-size="11" font-weight="700" isolation="isolate"><tspan x="0" y="0">1. Mine instruments</tspan></text>
  <text transform="translate(85 180)" fill="#555" font-family="ArialMT, Arial" font-size="10" isolation="isolate"><tspan x="0" y="0">(abbreviation-only + supplementary)</tspan></text>
  <text transform="translate(590 173)" fill="#6b7280" font-family="Arial-ItalicMT, Arial" font-size="10" font-style="italic" isolation="isolate"><tspan x="0" y="0">instruments.tsv</tspan></text>
  <path d="" fill="none"/>
  <polygon points="327 180 320 200 313 180 327 180" fill="#666"/>
  <path d="M320,198" fill="#666"/>
  <rect x="70" y="198" width="500" height="36" fill="#f8fafc" stroke="#cbd5e1"/>
  <text transform="translate(85 216)" fill="#333" font-family="Arial-BoldMT, Arial" font-size="11" font-weight="700" isolation="isolate"><tspan x="0" y="0">2. Batch expand abbreviations</tspan></text>
  <text transform="translate(85 228)" fill="#555" font-family="ArialMT, Arial" font-size="10" isolation="isolate"><tspan x="0" y="0">PROMIS -&gt; &quot;Patient-Reported Outcome...&quot;</tspan></text>
  <text transform="translate(590 221)" fill="#6b7280" font-family="Arial-ItalicMT, Arial" font-size="10" font-style="italic" isolation="isolate"><tspan x="0" y="0">expanded_phrases.tsv</tspan></text>
  <path d="" fill="none"/>
  <polygon points="327 228 320 248 313 228 327 228" fill="#666"/>
  <path d="M320,246" fill="#666"/>
  <rect x="70" y="246" width="500" height="36" fill="#f8fafc" stroke="#cbd5e1"/>
  <text transform="translate(85 264)" fill="#333" font-family="Arial-BoldMT, Arial" font-size="11" font-weight="700" isolation="isolate"><tspan x="0" y="0">3. Discover abbreviation designation patterns</tspan></text>
  <text transform="translate(85 276)" fill="#555" font-family="ArialMT, Arial" font-size="10" isolation="isolate"><tspan x="0" y="0">(PROMIS - ..., [PROMIS])</tspan></text>
  <text transform="translate(590 269)" fill="#6b7280" font-family="Arial-ItalicMT, Arial" font-size="10" font-style="italic" isolation="isolate"><tspan x="0" y="0">abbrev_patterns.tsv</tspan></text>
  <path d="" fill="none"/>
  <polygon points="327 280 320 300 313 280 327 280" fill="#666"/>
  <path d="M320,298" fill="#666"/>
  <rect x="100" y="298" width="460" height="30" fill="#fef9c3" stroke="#eab308" stroke-dasharray="6 3" stroke-width="2"/>
  <text transform="translate(252.2 318)" fill="#92400e" font-family="Arial-BoldMT, Arial" font-size="10" font-weight="700" isolation="isolate"><tspan x="0" y="0">CHECKPOINT: Expansion review</tspan></text>
  <path d="" fill="none"/>
  <polygon points="327 326 320 346 313 326 327 326" fill="#666"/>
  <path d="M320,344" fill="#666"/>
  <rect x="70" y="344" width="500" height="36" fill="#f8fafc" stroke="#cbd5e1"/>
  <text transform="translate(85 362)" fill="#333" font-family="Arial-BoldMT, Arial" font-size="11" font-weight="700" isolation="isolate"><tspan x="0" y="0">4. Discover verbatim patterns</tspan></text>
  <text transform="translate(85 374)" fill="#555" font-family="ArialMT, Arial" font-size="10" isolation="isolate"><tspan x="0" y="0">(instruments + expanded + abbrev patterns)</tspan></text>
  <text transform="translate(590 365)" fill="#6b7280" font-family="Arial-ItalicMT, Arial" font-size="10" font-style="italic" isolation="isolate"><tspan x="0" y="0">discovered_instruments.tsv</tspan></text>
  <path d="" fill="none"/>
  <polygon points="327 374 320 394 313 374 327 374" fill="#666"/>
  <path d="M320,392" fill="#666"/>
  <rect x="70" y="392" width="500" height="36" fill="#f8fafc" stroke="#cbd5e1"/>
  <text transform="translate(85 410)" fill="#333" font-family="Arial-BoldMT, Arial" font-size="11" font-weight="700" isolation="isolate"><tspan x="0" y="0">5. Coalesce (subsumption + prefix extraction)</tspan></text>
  <text transform="translate(590 413)" fill="#6b7280" font-family="Arial-ItalicMT, Arial" font-size="10" font-style="italic" isolation="isolate"><tspan x="0" y="0">coalesced_instruments.tsv</tspan></text>
  <path d="" fill="none"/>
  <polygon points="327 426 320 446 313 426 327 426" fill="#666"/>
  <path d="M320,444" fill="#666"/>
  <rect x="100" y="444" width="460" height="30" fill="#fef9c3" stroke="#eab308" stroke-dasharray="6 3" stroke-width="2"/>
  <text transform="translate(259.43 464)" fill="#92400e" font-family="Arial-BoldMT, Arial" font-size="10" font-weight="700" isolation="isolate"><tspan x="0" y="0">CHECKPOINT: Curator review</tspan></text>
  <text transform="translate(590 464)" fill="#2563eb" font-family="Arial-ItalicMT, Arial" font-size="10" font-style="italic" isolation="isolate"><tspan x="0" y="0">curated_instruments.tsv</tspan></text>
  <path d="" fill="none"/>
  <polygon points="327 472 320 492 313 472 327 472" fill="#666"/>
  <path d="M320,490" fill="#666"/>
  <rect x="70" y="490" width="500" height="28" fill="#f8fafc" stroke="#cbd5e1"/>
  <text transform="translate(85 508)" fill="#333" font-family="Arial-BoldMT, Arial" font-size="11" font-weight="700" isolation="isolate"><tspan x="0" y="0">6. Family discovery</tspan></text>
  <path d="" fill="none"/>
  <polygon points="327 512 320 532 313 512 327 512" fill="#666"/>
  <path d="M320,530" fill="#666"/>
  <rect x="70" y="530" width="500" height="28" fill="#f8fafc" stroke="#cbd5e1"/>
  <text transform="translate(85 548)" fill="#333" font-family="Arial-BoldMT, Arial" font-size="11" font-weight="700" isolation="isolate"><tspan x="0" y="0">7. Re-discover abbreviations</tspan></text>
  <path d="" fill="none"/>
  <polygon points="327 552 320 572 313 552 327 552" fill="#666"/>
  <path d="M320,570" fill="#666"/>
  <rect x="70" y="570" width="500" height="36" fill="#f8fafc" stroke="#cbd5e1"/>
  <text transform="translate(85 588)" fill="#333" font-family="Arial-BoldMT, Arial" font-size="11" font-weight="700" isolation="isolate"><tspan x="0" y="0">8. Final discover + coalesce</tspan></text>
  <text transform="translate(85 600)" fill="#555" font-family="ArialMT, Arial" font-size="10" isolation="isolate"><tspan x="0" y="0">(emit-def-variants, split-tiers: 3)</tspan></text>
  <text transform="translate(590 591)" fill="#6b7280" font-family="Arial-ItalicMT, Arial" font-size="10" font-style="italic" isolation="isolate"><tspan x="0" y="0">final_coalesced.tsv</tspan></text>
  <path d="" fill="none"/>
  <polygon points="327 604 320 624 313 604 327 604" fill="#666"/>
  <path d="M320,622" fill="#666"/>
  <rect x="100" y="622" width="460" height="30" fill="#fef9c3" stroke="#eab308" stroke-dasharray="6 3" stroke-width="2"/>
  <text transform="translate(265.82 642)" fill="#92400e" font-family="Arial-BoldMT, Arial" font-size="10" font-weight="700" isolation="isolate"><tspan x="0" y="0">CHECKPOINT: Final review</tspan></text>
  <path d="" fill="none"/>
  <polygon points="327 650 320 670 313 650 327 650" fill="#666"/>
  <path d="M320,668" fill="#666"/>
  <rect x="70" y="668" width="500" height="36" fill="#f8fafc" stroke="#cbd5e1"/>
  <text transform="translate(85 686)" fill="#333" font-family="Arial-BoldMT, Arial" font-size="11" font-weight="700" isolation="isolate"><tspan x="0" y="0">9a. Strip tier-1 (&gt;=3 tokens)</tspan></text>
  <text transform="translate(590 686)" fill="#2563eb" font-family="Arial-ItalicMT, Arial" font-size="10" font-style="italic" isolation="isolate"><tspan x="0" y="0">tier1_stripped.json</tspan></text>
  <path d="" fill="none"/>
  <polygon points="327 698 320 718 313 698 327 698" fill="#666"/>
  <path d="M320,716" fill="#666"/>
  <rect x="70" y="716" width="500" height="36" fill="#f8fafc" stroke="#cbd5e1"/>
  <text transform="translate(85 734)" fill="#333" font-family="Arial-BoldMT, Arial" font-size="11" font-weight="700" isolation="isolate"><tspan x="0" y="0">9b. Strip tier-2 (&lt;3 tokens)</tspan></text>
  <rect x="590" y="720" width="170" height="24" fill="#dbeafe" stroke="#3b82f6" stroke-width="2"/>
  <text transform="translate(620.91 737)" fill="#333" font-family="Arial-BoldMT, Arial" font-size="11" font-weight="700" isolation="isolate"><tspan x="0" y="0">no_instruments.json</tspan></text>
  <path d="" fill="none"/>
  <polygon points="327 746 320 766 313 746 327 746" fill="#666"/>
  <path d="M320,764" fill="#666"/>
  <rect x="70" y="764" width="500" height="28" fill="#f8fafc" stroke="#cbd5e1"/>
  <text transform="translate(85 782)" fill="#333" font-family="Arial-BoldMT, Arial" font-size="11" font-weight="700" isolation="isolate"><tspan x="0" y="0">10. Sanity check</tspan></text>
  <rect x="590" y="768" width="170" height="20" fill="#dbeafe" stroke="#3b82f6" stroke-width="2"/>
  <text transform="translate(638.32 782)" fill="#555" font-family="ArialMT, Arial" font-size="10" isolation="isolate"><tspan x="0" y="0">sanity_check.tsv</tspan></text>
  <path d="" fill="none"/>
  <polygon points="327 786 320 806 313 786 327 786" fill="#666"/>
  <path d="M320,804" fill="#666"/>
  <rect x="70" y="804" width="500" height="28" fill="#f8fafc" stroke="#cbd5e1"/>
  <text transform="translate(85 822)" fill="#333" font-family="Arial-BoldMT, Arial" font-size="11" font-weight="700" isolation="isolate"><tspan x="0" y="0">11. Discovery report</tspan></text>
  <rect x="590" y="808" width="170" height="20" fill="#dbeafe" stroke="#3b82f6" stroke-width="2"/>
  <text transform="translate(629.7 822)" fill="#555" font-family="ArialMT, Arial" font-size="10" isolation="isolate"><tspan x="0" y="0">discovery_report.md</tspan></text>
  <text transform="translate(770 727.5) rotate(-90)" fill="#666" font-family="ArialMT, Arial" font-size="10" isolation="isolate"><tspan x="0" y="0">OUTPUTS 1-3</tspan></text>
  <path d="" fill="none"/>
  <polygon points="417 862 410 882 403 862 417 862" fill="#666"/>
  <path d="M410,880" fill="#666"/>
  <rect x="40" y="880" width="740" height="363" fill="#f0fdf4" stroke="#16a34a" stroke-width="2"/>
  <rect x="40" y="880" width="740" height="28" fill="#16a34a" stroke="#16a34a" stroke-width="2"/>
  <text transform="translate(306.92 899)" fill="#fff" font-family="Arial-BoldMT, Arial" font-size="14" font-weight="700" isolation="isolate"><tspan x="0" y="0">PHASE 2: PHRASE STRIPPING</tspan></text>
  <rect x="70" y="920" width="500" height="36" fill="#f8fafc" stroke="#cbd5e1"/>
  <text transform="translate(85 938)" fill="#333" font-family="Arial-BoldMT, Arial" font-size="11" font-weight="700" isolation="isolate"><tspan x="0" y="0">1. Mine phrases (k-mer descent, k=25 to k=3)</tspan></text>
  <text transform="translate(590 941)" fill="#6b7280" font-family="Arial-ItalicMT, Arial" font-size="10" font-style="italic" isolation="isolate"><tspan x="0" y="0">verbatim_phrases.tsv</tspan></text>
  <path d="" fill="none"/>
  <polygon points="327 954 320 974 313 954 327 954" fill="#666"/>
  <path d="M320,972" fill="#666"/>
  <rect x="70" y="972" width="500" height="28" fill="#f8fafc" stroke="#cbd5e1"/>
  <text transform="translate(85 990)" fill="#333" font-family="Arial-BoldMT, Arial" font-size="11" font-weight="700" isolation="isolate"><tspan x="0" y="0">2. Discover verbatim patterns</tspan></text>
  <text transform="translate(590 990)" fill="#6b7280" font-family="Arial-ItalicMT, Arial" font-size="10" font-style="italic" isolation="isolate"><tspan x="0" y="0">discovered.tsv</tspan></text>
  <path d="" fill="none"/>
  <polygon points="327 998 320 1018 313 998 327 998" fill="#666"/>
  <path d="M320,1016" fill="#666"/>
  <rect x="70" y="1016" width="500" height="28" fill="#f8fafc" stroke="#cbd5e1"/>
  <text transform="translate(85 1034)" fill="#333" font-family="Arial-BoldMT, Arial" font-size="11" font-weight="700" isolation="isolate"><tspan x="0" y="0">3. Coalesce patterns</tspan></text>
  <text transform="translate(590 1034)" fill="#6b7280" font-family="Arial-ItalicMT, Arial" font-size="10" font-style="italic" isolation="isolate"><tspan x="0" y="0">coalesced.tsv</tspan></text>
  <path d="" fill="none"/>
  <polygon points="327 1042 320 1062 313 1042 327 1042" fill="#666"/>
  <path d="M320,1060" fill="#666"/>
  <rect x="70" y="1060" width="500" height="36" fill="#f8fafc" stroke="#cbd5e1"/>
  <text transform="translate(85 1078)" fill="#333" font-family="Arial-BoldMT, Arial" font-size="11" font-weight="700" isolation="isolate"><tspan x="0" y="0">4. Field analysis (enrich + filter)</tspan></text>
  <text transform="translate(590 1081)" fill="#6b7280" font-family="Arial-ItalicMT, Arial" font-size="10" font-style="italic" isolation="isolate"><tspan x="0" y="0">coalesced_fields.tsv</tspan></text>
  <path d="" fill="none"/>
  <polygon points="327 1094 320 1114 313 1094 327 1094" fill="#666"/>
  <path d="M320,1112" fill="#666"/>
  <rect x="100" y="1112" width="460" height="30" fill="#fef9c3" stroke="#eab308" stroke-dasharray="6 3" stroke-width="2"/>
  <text transform="translate(259.43 1132)" fill="#92400e" font-family="Arial-BoldMT, Arial" font-size="10" font-weight="700" isolation="isolate"><tspan x="0" y="0">CHECKPOINT: Curator review</tspan></text>
  <text transform="translate(590 1132)" fill="#2563eb" font-family="Arial-ItalicMT, Arial" font-size="10" font-style="italic" isolation="isolate"><tspan x="0" y="0">curated.tsv</tspan></text>
  <path d="" fill="none"/>
  <polygon points="327 1140 320 1160 313 1140 327 1140" fill="#666"/>
  <path d="M320,1158" fill="#666"/>
  <rect x="70" y="1158" width="500" height="28" fill="#f8fafc" stroke="#cbd5e1"/>
  <text transform="translate(85 1176)" fill="#333" font-family="Arial-BoldMT, Arial" font-size="11" font-weight="700" isolation="isolate"><tspan x="0" y="0">5. Strip phrases</tspan></text>
  <rect x="590" y="1162" width="170" height="20" fill="#dbeafe" stroke="#3b82f6" stroke-width="2"/>
  <text transform="translate(634.7 1176)" fill="#555" font-family="ArialMT, Arial" font-size="10" isolation="isolate"><tspan x="0" y="0">final_stripped.json</tspan></text>
  <path d="" fill="none"/>
  <polygon points="327 1184 320 1204 313 1184 327 1184" fill="#666"/>
  <path d="M320,1202" fill="#666"/>
  <rect x="70" y="1202" width="500" height="28" fill="#f8fafc" stroke="#cbd5e1"/>
  <text transform="translate(85 1220)" fill="#333" font-family="Arial-BoldMT, Arial" font-size="11" font-weight="700" isolation="isolate"><tspan x="0" y="0">6. Discovery report</tspan></text>
  <rect x="590" y="1206" width="170" height="20" fill="#dbeafe" stroke="#3b82f6" stroke-width="2"/>
  <text transform="translate(629.7 1220)" fill="#555" font-family="ArialMT, Arial" font-size="10" isolation="isolate"><tspan x="0" y="0">discovery_report.md</tspan></text>
  <text transform="translate(770 1217.5) rotate(-90)" fill="#666" font-family="ArialMT, Arial" font-size="10" isolation="isolate"><tspan x="0" y="0">OUTPUTS 4-5</tspan></text>
  <path d="" fill="none"/>
  <polygon points="417 1250 410 1270 403 1250 417 1250" fill="#666"/>
  <path d="M410,1268" fill="#666"/>
  <rect x="230" y="1268" width="360" height="40" fill="#dbeafe" stroke="#3b82f6" stroke-width="2"/>
  <text transform="translate(333.6 1293)" fill="#333" font-family="Arial-BoldMT, Arial" font-size="11" font-weight="700" isolation="isolate"><tspan x="0" y="0">OUTPUT: Cleaned CDE JSON</tspan></text>
</svg>