<?xml version="1.0" encoding="UTF-8"?>
<svg xmlns="http://www.w3.org/2000/svg" viewBox="0 0 900 600" width="900" height="600">
  <defs>
    <marker id="arr" markerWidth="10" markerHeight="7" refX="10" refY="3.5" orient="auto">
      <polygon points="0 0, 10 3.5, 0 7" fill="#444"/>
    </marker>
    <style>
      text { font-family: 'Segoe UI', 'Helvetica Neue', Arial, sans-serif; }
      .title { font-size: 17px; font-weight: 700; fill: #1a1a1a; }
      .box-label { font-size: 12px; fill: #333; font-weight: 600; }
      .box-detail { font-size: 10px; fill: #555; }
      .output-label { font-size: 11px; fill: #1b5e20; font-weight: 700; }
      .output-detail { font-size: 10px; fill: #555; }
      .step-num { font-size: 9px; fill: #fff; font-weight: 700; }
      .note { font-size: 10px; fill: #777; font-style: italic; }
    </style>
  </defs>

  <!-- Title -->
  <text x="450" y="28" text-anchor="middle" class="title">Phase 3: Branching Strip Pipeline (10 Steps)</text>

  <!-- Input -->
  <rect x="350" y="45" width="200" height="34" rx="8" fill="#e3f2fd" stroke="#1565c0" stroke-width="2"/>
  <text x="450" y="67" text-anchor="middle" class="box-label">Original CDE JSON</text>

  <!-- Step 1-2: Instrument strips (fork) -->
  <line x1="450" y1="79" x2="450" y2="95" stroke="#444" stroke-width="1.5"/>
  <line x1="450" y1="95" x2="200" y2="95" stroke="#444" stroke-width="1.5"/>
  <line x1="450" y1="95" x2="700" y2="95" stroke="#444" stroke-width="1.5"/>
  <line x1="200" y1="95" x2="200" y2="108" stroke="#444" stroke-width="1.5" marker-end="url(#arr)"/>
  <line x1="700" y1="95" x2="700" y2="108" stroke="#444" stroke-width="1.5" marker-end="url(#arr)"/>
  <line x1="450" y1="95" x2="450" y2="108" stroke="#444" stroke-width="1.5" marker-end="url(#arr)"/>

  <!-- Step 1: strip_inst_full -->
  <rect x="100" y="110" width="200" height="40" rx="6" fill="#bbdefb" stroke="#1565c0" stroke-width="1.5"/>
  <circle cx="120" cy="130" r="10" fill="#1565c0"/>
  <text x="120" y="134" text-anchor="middle" class="step-num">1</text>
  <text x="210" y="127" text-anchor="middle" class="box-label">Strip Instruments (Full)</text>
  <text x="210" y="141" text-anchor="middle" class="box-detail">Remove complete instrument names</text>

  <!-- Step 2: strip_inst_sub -->
  <rect x="600" y="110" width="200" height="40" rx="6" fill="#bbdefb" stroke="#1565c0" stroke-width="1.5"/>
  <circle cx="620" cy="130" r="10" fill="#1565c0"/>
  <text x="620" y="134" text-anchor="middle" class="step-num">2</text>
  <text x="710" y="127" text-anchor="middle" class="box-label">Strip Instruments (Sub)</text>
  <text x="710" y="141" text-anchor="middle" class="box-detail">Remove instrument prefix only</text>

  <!-- Center path: no instrument strip (phrase-only branch) -->
  <rect x="350" y="110" width="200" height="40" rx="6" fill="#f5f5f5" stroke="#999" stroke-width="1" stroke-dasharray="4,2"/>
  <text x="450" y="135" text-anchor="middle" class="box-detail">No instrument stripping</text>

  <!-- Step 3: Temporal expansion (shared) -->
  <rect x="250" y="185" width="400" height="40" rx="6" fill="#fff9c4" stroke="#f9a825" stroke-width="2"/>
  <circle cx="270" cy="205" r="10" fill="#f9a825"/>
  <text x="270" y="209" text-anchor="middle" class="step-num">3</text>
  <text x="460" y="202" text-anchor="middle" class="box-label">Expand Temporal Seeds</text>
  <text x="460" y="216" text-anchor="middle" class="box-detail">25 seeds &#x2192; ~2,100 variants (case-insensitive)</text>

  <!-- Arrows down to temporal expansion -->
  <line x1="200" y1="150" x2="200" y2="170" stroke="#444" stroke-width="1.5"/>
  <line x1="200" y1="170" x2="350" y2="170" stroke="#444" stroke-width="1.5"/>
  <line x1="450" y1="150" x2="450" y2="183" stroke="#444" stroke-width="1.5" marker-end="url(#arr)"/>
  <line x1="700" y1="150" x2="700" y2="170" stroke="#444" stroke-width="1.5"/>
  <line x1="700" y1="170" x2="550" y2="170" stroke="#444" stroke-width="1.5"/>
  <line x1="350" y1="170" x2="350" y2="183" stroke="#444" stroke-width="1" marker-end="url(#arr)"/>
  <line x1="550" y1="170" x2="550" y2="183" stroke="#444" stroke-width="1" marker-end="url(#arr)"/>

  <!-- Steps 4-6: Temporal strip (3 branches) -->
  <line x1="450" y1="225" x2="450" y2="240" stroke="#444" stroke-width="1.5"/>
  <line x1="450" y1="240" x2="150" y2="240" stroke="#444" stroke-width="1"/>
  <line x1="450" y1="240" x2="750" y2="240" stroke="#444" stroke-width="1"/>
  <line x1="150" y1="240" x2="150" y2="253" stroke="#444" stroke-width="1" marker-end="url(#arr)"/>
  <line x1="450" y1="240" x2="450" y2="253" stroke="#444" stroke-width="1" marker-end="url(#arr)"/>
  <line x1="750" y1="240" x2="750" y2="253" stroke="#444" stroke-width="1" marker-end="url(#arr)"/>

  <rect x="50" y="255" width="200" height="40" rx="6" fill="#ffecb3" stroke="#f9a825" stroke-width="1.5"/>
  <circle cx="70" cy="275" r="10" fill="#f9a825"/>
  <text x="70" y="279" text-anchor="middle" class="step-num">4</text>
  <text x="160" y="272" text-anchor="middle" class="box-label">Temporal Strip</text>
  <text x="160" y="286" text-anchor="middle" class="box-detail">on raw input</text>

  <rect x="350" y="255" width="200" height="40" rx="6" fill="#ffecb3" stroke="#f9a825" stroke-width="1.5"/>
  <circle cx="370" cy="275" r="10" fill="#f9a825"/>
  <text x="370" y="279" text-anchor="middle" class="step-num">5</text>
  <text x="460" y="272" text-anchor="middle" class="box-label">Temporal Strip</text>
  <text x="460" y="286" text-anchor="middle" class="box-detail">on inst_full output</text>

  <rect x="650" y="255" width="200" height="40" rx="6" fill="#ffecb3" stroke="#f9a825" stroke-width="1.5"/>
  <circle cx="670" cy="275" r="10" fill="#f9a825"/>
  <text x="670" y="279" text-anchor="middle" class="step-num">6</text>
  <text x="760" y="272" text-anchor="middle" class="box-label">Temporal Strip</text>
  <text x="760" y="286" text-anchor="middle" class="box-detail">on inst_sub output</text>

  <!-- Steps 7-9: Phrase strip (3 branches) -->
  <line x1="150" y1="295" x2="150" y2="328" stroke="#444" stroke-width="1.5" marker-end="url(#arr)"/>
  <line x1="450" y1="295" x2="450" y2="328" stroke="#444" stroke-width="1.5" marker-end="url(#arr)"/>
  <line x1="750" y1="295" x2="750" y2="328" stroke="#444" stroke-width="1.5" marker-end="url(#arr)"/>

  <rect x="50" y="330" width="200" height="40" rx="6" fill="#e1bee7" stroke="#7b1fa2" stroke-width="1.5"/>
  <circle cx="70" cy="350" r="10" fill="#7b1fa2"/>
  <text x="70" y="354" text-anchor="middle" class="step-num">7</text>
  <text x="160" y="347" text-anchor="middle" class="box-label">Curated Phrase Strip</text>
  <text x="160" y="361" text-anchor="middle" class="box-detail">case-sensitive</text>

  <rect x="350" y="330" width="200" height="40" rx="6" fill="#e1bee7" stroke="#7b1fa2" stroke-width="1.5"/>
  <circle cx="370" cy="350" r="10" fill="#7b1fa2"/>
  <text x="370" y="354" text-anchor="middle" class="step-num">8</text>
  <text x="460" y="347" text-anchor="middle" class="box-label">Curated Phrase Strip</text>
  <text x="460" y="361" text-anchor="middle" class="box-detail">case-sensitive</text>

  <rect x="650" y="330" width="200" height="40" rx="6" fill="#e1bee7" stroke="#7b1fa2" stroke-width="1.5"/>
  <circle cx="670" cy="350" r="10" fill="#7b1fa2"/>
  <text x="670" y="354" text-anchor="middle" class="step-num">9</text>
  <text x="760" y="347" text-anchor="middle" class="box-label">Curated Phrase Strip</text>
  <text x="760" y="361" text-anchor="middle" class="box-detail">case-sensitive</text>

  <!-- Step 10: Quality Report -->
  <rect x="300" y="415" width="300" height="36" rx="8" fill="#f3e5f5" stroke="#7b1fa2" stroke-width="2"/>
  <circle cx="320" cy="433" r="10" fill="#7b1fa2"/>
  <text x="320" y="437" text-anchor="middle" class="step-num">10</text>
  <text x="460" y="438" text-anchor="middle" class="box-label">Quality Report: scan all outputs for remnants</text>

  <line x1="150" y1="370" x2="150" y2="395" stroke="#444" stroke-width="1"/>
  <line x1="450" y1="370" x2="450" y2="413" stroke="#444" stroke-width="1.5" marker-end="url(#arr)"/>
  <line x1="750" y1="370" x2="750" y2="395" stroke="#444" stroke-width="1"/>
  <line x1="150" y1="395" x2="750" y2="395" stroke="#444" stroke-width="1"/>
  <line x1="450" y1="395" x2="450" y2="413" stroke="#444" stroke-width="1"/>

  <!-- 5 Outputs -->
  <text x="450" y="478" text-anchor="middle" class="title" style="font-size:14px;">5 Output Variants</text>

  <rect x="30" y="492" width="150" height="50" rx="8" fill="#c8e6c9" stroke="#2e7d32" stroke-width="2"/>
  <text x="105" y="513" text-anchor="middle" class="output-label">phrase_only</text>
  <text x="105" y="530" text-anchor="middle" class="output-detail">-105K chars</text>

  <rect x="205" y="492" width="150" height="50" rx="8" fill="#c8e6c9" stroke="#2e7d32" stroke-width="2"/>
  <text x="280" y="513" text-anchor="middle" class="output-label">inst_full</text>
  <text x="280" y="530" text-anchor="middle" class="output-detail">-515K chars</text>

  <rect x="380" y="492" width="150" height="50" rx="8" fill="#c8e6c9" stroke="#2e7d32" stroke-width="2"/>
  <text x="455" y="513" text-anchor="middle" class="output-label">inst_sub</text>
  <text x="455" y="530" text-anchor="middle" class="output-detail">-415K chars</text>

  <rect x="555" y="492" width="150" height="50" rx="8" fill="#a5d6a7" stroke="#1b5e20" stroke-width="2"/>
  <text x="630" y="513" text-anchor="middle" class="output-label">both_full</text>
  <text x="630" y="530" text-anchor="middle" class="output-detail">-553K chars</text>

  <rect x="730" y="492" width="150" height="50" rx="8" fill="#a5d6a7" stroke="#1b5e20" stroke-width="2"/>
  <text x="805" y="513" text-anchor="middle" class="output-label">both_sub</text>
  <text x="805" y="530" text-anchor="middle" class="output-detail">-449K chars</text>

  <!-- Arrows to outputs -->
  <line x1="150" y1="370" x2="150" y2="385" stroke="#444" stroke-width="1"/>
  <line x1="105" y1="460" x2="105" y2="490" stroke="#2e7d32" stroke-width="1.5" marker-end="url(#arr)"/>
  <line x1="280" y1="460" x2="280" y2="490" stroke="#2e7d32" stroke-width="1.5" marker-end="url(#arr)"/>
  <line x1="455" y1="460" x2="455" y2="490" stroke="#2e7d32" stroke-width="1.5" marker-end="url(#arr)"/>
  <line x1="630" y1="460" x2="630" y2="490" stroke="#2e7d32" stroke-width="1.5" marker-end="url(#arr)"/>
  <line x1="805" y1="460" x2="805" y2="490" stroke="#2e7d32" stroke-width="1.5" marker-end="url(#arr)"/>

  <line x1="300" y1="451" x2="105" y2="460" stroke="#444" stroke-width="1"/>
  <line x1="350" y1="451" x2="280" y2="460" stroke="#444" stroke-width="1"/>
  <line x1="450" y1="451" x2="455" y2="460" stroke="#444" stroke-width="1"/>
  <line x1="550" y1="451" x2="630" y2="460" stroke="#444" stroke-width="1"/>
  <line x1="600" y1="451" x2="805" y2="460" stroke="#444" stroke-width="1"/>

  <!-- Notes -->
  <text x="450" y="570" text-anchor="middle" class="note">Temporal: case-insensitive (2,100 variants)  |  Curated phrases: case-sensitive (verbatim match)</text>
  <text x="450" y="588" text-anchor="middle" class="note">Production: 22,743 CDEs  |  Runtime: ~4.5 minutes  |  0 temporal remnants</text>
</svg>
