<?xml version="1.0" encoding="UTF-8"?>
<svg xmlns="http://www.w3.org/2000/svg" viewBox="0 0 900 640" width="900" height="640">
  <defs>
    <marker id="arr" markerWidth="10" markerHeight="7" refX="10" refY="3.5" orient="auto">
      <polygon points="0 0, 10 3.5, 0 7" fill="#444"/>
    </marker>
    <style>
      text { font-family: 'Segoe UI', 'Helvetica Neue', Arial, sans-serif; }
      .title { font-size: 17px; font-weight: 700; fill: #1a1a1a; }
      .box-label { font-size: 12px; fill: #333; font-weight: 600; }
      .box-detail { font-size: 10px; fill: #555; }
      .output-label { font-size: 11px; fill: #1b5e20; font-weight: 700; }
      .output-detail { font-size: 10px; fill: #555; }
      .step-num { font-size: 9px; fill: #fff; font-weight: 700; }
      .note { font-size: 10px; fill: #777; font-style: italic; }
      .pf-label { font-size: 9px; fill: #1565c0; font-weight: 600; }
    </style>
  </defs>

  <!-- Title -->
  <text x="450" y="28" text-anchor="middle" class="title">Phase 3: Branching Strip Pipeline (14 Steps)</text>

  <!-- Input -->
  <rect x="350" y="45" width="200" height="34" rx="8" fill="#e3f2fd" stroke="#1565c0" stroke-width="2"/>
  <text x="450" y="67" text-anchor="middle" class="box-label">Original CDE JSON</text>

  <!-- Step 1-3: Instrument strips (fork into 3 + pass-through) -->
  <line x1="450" y1="79" x2="450" y2="95" stroke="#444" stroke-width="1.5"/>
  <line x1="450" y1="95" x2="150" y2="95" stroke="#444" stroke-width="1.5"/>
  <line x1="450" y1="95" x2="750" y2="95" stroke="#444" stroke-width="1.5"/>
  <line x1="150" y1="95" x2="150" y2="108" stroke="#444" stroke-width="1.5" marker-end="url(#arr)"/>
  <line x1="750" y1="95" x2="750" y2="108" stroke="#444" stroke-width="1.5" marker-end="url(#arr)"/>
  <line x1="450" y1="95" x2="450" y2="108" stroke="#444" stroke-width="1.5" marker-end="url(#arr)"/>

  <!-- Step 1: strip_MTSFPF (full inst) -->
  <rect x="50" y="110" width="200" height="40" rx="6" fill="#bbdefb" stroke="#1565c0" stroke-width="1.5"/>
  <circle cx="70" cy="130" r="10" fill="#1565c0"/>
  <text x="70" y="134" text-anchor="middle" class="step-num">1</text>
  <text x="160" y="127" text-anchor="middle" class="box-label">Strip Instruments (Full)</text>
  <text x="160" y="141" text-anchor="middle" class="box-detail">Remove complete instrument names</text>

  <!-- Step 2: strip_MFSTPF (sub inst) -->
  <rect x="650" y="110" width="200" height="40" rx="6" fill="#bbdefb" stroke="#1565c0" stroke-width="1.5"/>
  <circle cx="670" cy="130" r="10" fill="#1565c0"/>
  <text x="670" y="134" text-anchor="middle" class="step-num">2</text>
  <text x="760" y="127" text-anchor="middle" class="box-label">Strip Instruments (Sub)</text>
  <text x="760" y="141" text-anchor="middle" class="box-detail">Remove instrument prefix only</text>

  <!-- Center path: no instrument strip (phrase-only branch) -->
  <rect x="350" y="110" width="200" height="40" rx="6" fill="#f5f5f5" stroke="#999" stroke-width="1" stroke-dasharray="4,2"/>
  <text x="450" y="135" text-anchor="middle" class="box-detail">No instrument stripping</text>

  <!-- Step 3: sub_on_full (combined MTSTPF / MTSTPT branch) -->
  <line x1="150" y1="150" x2="150" y2="162" stroke="#444" stroke-width="1"/>
  <line x1="150" y1="162" x2="310" y2="162" stroke="#444" stroke-width="1"/>
  <line x1="310" y1="162" x2="310" y2="170" stroke="#444" stroke-width="1" marker-end="url(#arr)"/>
  <rect x="250" y="172" width="120" height="30" rx="6" fill="#90caf9" stroke="#1565c0" stroke-width="1.5"/>
  <circle cx="268" cy="187" r="8" fill="#1565c0"/>
  <text x="268" y="191" text-anchor="middle" class="step-num" style="font-size:8px;">3</text>
  <text x="320" y="191" text-anchor="middle" class="box-detail" style="font-weight:600;">Sub on Full</text>

  <!-- PF output labels on instrument strip boxes -->
  <text x="150" y="159" text-anchor="middle" class="pf-label">&#x2192; MTSFPF</text>
  <text x="750" y="159" text-anchor="middle" class="pf-label">&#x2192; MFSTPF</text>
  <text x="310" y="212" text-anchor="middle" class="pf-label">&#x2192; MTSTPF</text>

  <!-- Step 4: Temporal expansion (shared) -->
  <rect x="350" y="228" width="300" height="34" rx="6" fill="#fff9c4" stroke="#f9a825" stroke-width="2"/>
  <circle cx="370" cy="245" r="10" fill="#f9a825"/>
  <text x="370" y="249" text-anchor="middle" class="step-num">4</text>
  <text x="510" y="242" text-anchor="middle" class="box-label">Expand Temporal Seeds</text>
  <text x="510" y="256" text-anchor="middle" class="box-detail">25 seeds &#x2192; ~2,100 variants (case-insensitive)</text>

  <!-- Arrows down to temporal expansion -->
  <line x1="150" y1="150" x2="150" y2="218" stroke="#444" stroke-width="1"/>
  <line x1="150" y1="218" x2="420" y2="218" stroke="#444" stroke-width="1"/>
  <line x1="420" y1="218" x2="420" y2="226" stroke="#444" stroke-width="1" marker-end="url(#arr)"/>
  <line x1="450" y1="150" x2="450" y2="218" stroke="#444" stroke-width="1"/>
  <line x1="450" y1="218" x2="450" y2="226" stroke="#444" stroke-width="1" marker-end="url(#arr)"/>
  <line x1="750" y1="150" x2="750" y2="218" stroke="#444" stroke-width="1"/>
  <line x1="750" y1="218" x2="580" y2="218" stroke="#444" stroke-width="1"/>
  <line x1="580" y1="218" x2="580" y2="226" stroke="#444" stroke-width="1" marker-end="url(#arr)"/>
  <line x1="310" y1="202" x2="310" y2="218" stroke="#444" stroke-width="1"/>
  <line x1="310" y1="218" x2="370" y2="218" stroke="#444" stroke-width="1"/>

  <!-- Steps 5-8: Temporal strip (4 branches) -->
  <line x1="500" y1="262" x2="500" y2="276" stroke="#444" stroke-width="1.5"/>
  <line x1="500" y1="276" x2="120" y2="276" stroke="#444" stroke-width="1"/>
  <line x1="500" y1="276" x2="350" y2="276" stroke="#444" stroke-width="1"/>
  <line x1="500" y1="276" x2="620" y2="276" stroke="#444" stroke-width="1"/>
  <line x1="500" y1="276" x2="810" y2="276" stroke="#444" stroke-width="1"/>
  <line x1="120" y1="276" x2="120" y2="289" stroke="#444" stroke-width="1" marker-end="url(#arr)"/>
  <line x1="350" y1="276" x2="350" y2="289" stroke="#444" stroke-width="1" marker-end="url(#arr)"/>
  <line x1="620" y1="276" x2="620" y2="289" stroke="#444" stroke-width="1" marker-end="url(#arr)"/>
  <line x1="810" y1="276" x2="810" y2="289" stroke="#444" stroke-width="1" marker-end="url(#arr)"/>

  <rect x="30" y="291" width="180" height="36" rx="6" fill="#ffecb3" stroke="#f9a825" stroke-width="1.5"/>
  <circle cx="48" cy="309" r="10" fill="#f9a825"/>
  <text x="48" y="313" text-anchor="middle" class="step-num">5</text>
  <text x="130" y="306" text-anchor="middle" class="box-label">Temporal Strip</text>
  <text x="130" y="319" text-anchor="middle" class="box-detail">on raw input</text>

  <rect x="260" y="291" width="180" height="36" rx="6" fill="#ffecb3" stroke="#f9a825" stroke-width="1.5"/>
  <circle cx="278" cy="309" r="10" fill="#f9a825"/>
  <text x="278" y="313" text-anchor="middle" class="step-num">6</text>
  <text x="360" y="306" text-anchor="middle" class="box-label">Temporal Strip</text>
  <text x="360" y="319" text-anchor="middle" class="box-detail">on full-inst output</text>

  <rect x="490" y="291" width="180" height="36" rx="6" fill="#ffecb3" stroke="#f9a825" stroke-width="1.5"/>
  <circle cx="508" cy="309" r="10" fill="#f9a825"/>
  <text x="508" y="313" text-anchor="middle" class="step-num">7</text>
  <text x="590" y="306" text-anchor="middle" class="box-label">Temporal Strip</text>
  <text x="590" y="319" text-anchor="middle" class="box-detail">on sub-inst output</text>

  <rect x="710" y="291" width="180" height="36" rx="6" fill="#ffecb3" stroke="#f9a825" stroke-width="1.5"/>
  <circle cx="728" cy="309" r="10" fill="#f9a825"/>
  <text x="728" y="313" text-anchor="middle" class="step-num">8</text>
  <text x="810" y="306" text-anchor="middle" class="box-label">Temporal Strip</text>
  <text x="810" y="319" text-anchor="middle" class="box-detail">on full+sub output</text>

  <!-- Steps 9-12: Phrase strip (4 branches) -->
  <line x1="120" y1="327" x2="120" y2="356" stroke="#444" stroke-width="1.5" marker-end="url(#arr)"/>
  <line x1="350" y1="327" x2="350" y2="356" stroke="#444" stroke-width="1.5" marker-end="url(#arr)"/>
  <line x1="580" y1="327" x2="580" y2="356" stroke="#444" stroke-width="1.5" marker-end="url(#arr)"/>
  <line x1="800" y1="327" x2="800" y2="356" stroke="#444" stroke-width="1.5" marker-end="url(#arr)"/>

  <rect x="30" y="358" width="180" height="36" rx="6" fill="#e1bee7" stroke="#7b1fa2" stroke-width="1.5"/>
  <circle cx="48" cy="376" r="10" fill="#7b1fa2"/>
  <text x="48" y="380" text-anchor="middle" class="step-num">9</text>
  <text x="130" y="373" text-anchor="middle" class="box-label">Phrase Strip</text>
  <text x="130" y="386" text-anchor="middle" class="box-detail">case-sensitive</text>

  <rect x="260" y="358" width="180" height="36" rx="6" fill="#e1bee7" stroke="#7b1fa2" stroke-width="1.5"/>
  <circle cx="278" cy="376" r="10" fill="#7b1fa2"/>
  <text x="278" y="380" text-anchor="middle" class="step-num">10</text>
  <text x="360" y="373" text-anchor="middle" class="box-label">Phrase Strip</text>
  <text x="360" y="386" text-anchor="middle" class="box-detail">case-sensitive</text>

  <rect x="490" y="358" width="180" height="36" rx="6" fill="#e1bee7" stroke="#7b1fa2" stroke-width="1.5"/>
  <circle cx="508" cy="376" r="10" fill="#7b1fa2"/>
  <text x="508" y="380" text-anchor="middle" class="step-num">11</text>
  <text x="590" y="373" text-anchor="middle" class="box-label">Phrase Strip</text>
  <text x="590" y="386" text-anchor="middle" class="box-detail">case-sensitive</text>

  <rect x="710" y="358" width="180" height="36" rx="6" fill="#e1bee7" stroke="#7b1fa2" stroke-width="1.5"/>
  <circle cx="728" cy="376" r="10" fill="#7b1fa2"/>
  <text x="728" y="380" text-anchor="middle" class="step-num">12</text>
  <text x="810" y="373" text-anchor="middle" class="box-label">Phrase Strip</text>
  <text x="810" y="386" text-anchor="middle" class="box-detail">case-sensitive</text>

  <!-- Steps 13-14: Write PF outputs + Quality Report -->
  <!-- Step 13: Write 3 PF variant outputs (instrument-only, no phrase stripping) -->
  <rect x="50" y="430" width="250" height="30" rx="6" fill="#e3f2fd" stroke="#1565c0" stroke-width="1.5"/>
  <circle cx="68" cy="445" r="10" fill="#1565c0"/>
  <text x="68" y="449" text-anchor="middle" class="step-num">13</text>
  <text x="185" y="449" text-anchor="middle" class="box-label">Write 3 PF Outputs (instrument-only)</text>

  <!-- Step 14: Quality Report -->
  <rect x="380" y="430" width="300" height="30" rx="8" fill="#f3e5f5" stroke="#7b1fa2" stroke-width="2"/>
  <circle cx="400" cy="445" r="10" fill="#7b1fa2"/>
  <text x="400" y="449" text-anchor="middle" class="step-num">14</text>
  <text x="540" y="449" text-anchor="middle" class="box-label">Quality Report: scan all outputs for remnants</text>

  <!-- Arrows from phrase strip to quality report -->
  <line x1="120" y1="394" x2="120" y2="415" stroke="#444" stroke-width="1"/>
  <line x1="350" y1="394" x2="350" y2="415" stroke="#444" stroke-width="1"/>
  <line x1="580" y1="394" x2="580" y2="415" stroke="#444" stroke-width="1"/>
  <line x1="800" y1="394" x2="800" y2="415" stroke="#444" stroke-width="1"/>
  <line x1="120" y1="415" x2="800" y2="415" stroke="#444" stroke-width="1"/>
  <line x1="530" y1="415" x2="530" y2="428" stroke="#444" stroke-width="1.5" marker-end="url(#arr)"/>
  <line x1="175" y1="415" x2="175" y2="428" stroke="#444" stroke-width="1.5" marker-end="url(#arr)"/>

  <!-- 7 Outputs -->
  <text x="450" y="488" text-anchor="middle" class="title" style="font-size:14px;">7 Output Variants (2&#xB3;&#x2212;1 combinatorial grid)</text>

  <!-- Output boxes: width=108, gap=10, 7 boxes = 816px, start at x=42 -->
  <!-- PF variants (instrument-only, no phrases) — lighter green -->
  <rect x="42" y="500" width="108" height="50" rx="8" fill="#c8e6c9" stroke="#2e7d32" stroke-width="2"/>
  <text x="96" y="521" text-anchor="middle" class="output-label">MTSFPF</text>
  <text x="96" y="536" text-anchor="middle" class="output-detail">full inst only</text>

  <rect x="160" y="500" width="108" height="50" rx="8" fill="#c8e6c9" stroke="#2e7d32" stroke-width="2"/>
  <text x="214" y="521" text-anchor="middle" class="output-label">MFSTPF</text>
  <text x="214" y="536" text-anchor="middle" class="output-detail">sub inst only</text>

  <rect x="278" y="500" width="108" height="50" rx="8" fill="#bbdefb" stroke="#1565c0" stroke-width="2"/>
  <text x="332" y="521" text-anchor="middle" class="output-label" style="fill:#1565c0;">MTSTPF</text>
  <text x="332" y="536" text-anchor="middle" class="output-detail">full+sub inst</text>

  <!-- PT variants (with phrases) — darker green -->
  <rect x="396" y="500" width="108" height="50" rx="8" fill="#c8e6c9" stroke="#2e7d32" stroke-width="2"/>
  <text x="450" y="521" text-anchor="middle" class="output-label">MFSFPT</text>
  <text x="450" y="536" text-anchor="middle" class="output-detail">phrases only</text>

  <rect x="514" y="500" width="108" height="50" rx="8" fill="#a5d6a7" stroke="#1b5e20" stroke-width="2"/>
  <text x="568" y="521" text-anchor="middle" class="output-label">MTSFPT</text>
  <text x="568" y="536" text-anchor="middle" class="output-detail">full inst + phrases</text>

  <rect x="632" y="500" width="108" height="50" rx="8" fill="#a5d6a7" stroke="#1b5e20" stroke-width="2"/>
  <text x="686" y="521" text-anchor="middle" class="output-label">MFSTPT</text>
  <text x="686" y="536" text-anchor="middle" class="output-detail">sub inst + phrases</text>

  <rect x="750" y="500" width="108" height="50" rx="8" fill="#81c784" stroke="#1b5e20" stroke-width="2.5"/>
  <text x="804" y="521" text-anchor="middle" class="output-label">MTSTPT</text>
  <text x="804" y="536" text-anchor="middle" class="output-detail">maximum</text>

  <!-- Arrows from steps 13-14 down to outputs -->
  <line x1="96"  y1="460" x2="96"  y2="498" stroke="#2e7d32" stroke-width="1.5" marker-end="url(#arr)"/>
  <line x1="214" y1="460" x2="214" y2="498" stroke="#2e7d32" stroke-width="1.5" marker-end="url(#arr)"/>
  <line x1="332" y1="460" x2="332" y2="498" stroke="#1565c0" stroke-width="1.5" marker-end="url(#arr)"/>
  <line x1="450" y1="460" x2="450" y2="498" stroke="#2e7d32" stroke-width="1.5" marker-end="url(#arr)"/>
  <line x1="568" y1="460" x2="568" y2="498" stroke="#2e7d32" stroke-width="1.5" marker-end="url(#arr)"/>
  <line x1="686" y1="460" x2="686" y2="498" stroke="#2e7d32" stroke-width="1.5" marker-end="url(#arr)"/>
  <line x1="804" y1="460" x2="804" y2="498" stroke="#2e7d32" stroke-width="1.5" marker-end="url(#arr)"/>

  <!-- Notes -->
  <text x="450" y="580" text-anchor="middle" class="note">Temporal: case-insensitive (2,100 variants)  |  Curated phrases: case-sensitive (verbatim match)</text>
  <text x="450" y="598" text-anchor="middle" class="note">3 PF variants = instrument-only (skip temporal/phrase)  |  4 PT variants = full temporal + phrase stripping</text>
  <text x="450" y="616" text-anchor="middle" class="note">Production: 22,743 CDEs  |  N-way single-pass: 104s  |  MTSTPT = full + sub instruments + phrases (maximum cleaning)</text>
</svg>
