<?xml version="1.0" encoding="UTF-8"?>
<svg id="Layer_1" xmlns="http://www.w3.org/2000/svg" version="1.1" viewBox="0 0 800 854">
  <!-- Generator: Adobe Illustrator 30.2.1, SVG Export Plug-In . SVG Version: 2.1.1 Build 1)  -->
  <text transform="translate(269.45 30)" fill="#1a1a1a" font-family="Arial-BoldMT, Arial" font-size="18" font-weight="700" isolation="isolate"><tspan x="0" y="0">False Negative Recovery Loop</tspan></text>
  <text transform="translate(271.6 50)" fill="#6b7280" font-family="ArialMT, Arial" font-size="12" isolation="isolate"><tspan x="0" y="0">Iterative improvement after each stripping phase</tspan></text>
  <rect x="250" y="70" width="300" height="45" fill="#e0e7ff" stroke="#6366f1" stroke-width="2"/>
  <text transform="translate(357.66 92)" fill="#333" font-family="Arial-BoldMT, Arial" font-size="12" font-weight="700" isolation="isolate"><tspan x="0" y="0">Stripped JSON</tspan></text>
  <text transform="translate(313.56 107)" fill="#6b7280" font-family="Arial-ItalicMT, Arial" font-size="10" font-style="italic" isolation="isolate"><tspan x="0" y="0">inst_stripped.json or final_stripped.json</tspan></text>
  <path d="" fill="none"/>
  <polygon points="407 127 400 147 393 127 407 127" fill="#666"/>
  <path d="M400,145" fill="#666"/>
  <rect x="100" y="145" width="600" height="100" fill="#f8fafc" stroke="#cbd5e1"/>
  <text transform="translate(120 170)" fill="#333" font-family="Arial-BoldMT, Arial" font-size="12" font-weight="700" isolation="isolate"><tspan x="0" y="0">A. Diagnose Remaining Patterns</tspan></text>
  <text transform="translate(120 190)" fill="#555" font-family="CourierNewPSMT, &apos;Courier New&apos;" font-size="11" isolation="isolate"><tspan x="0" y="0">diagnose_strip -i stripped.json -m CDE -o remaining.tsv --suggest-patterns</tspan></text>
  <text transform="translate(383.67 210)" fill="#9ca3af" font-family="Arial-BoldMT, Arial" font-size="12" font-weight="700" isolation="isolate"><tspan x="0" y="0">- OR -</tspan></text>
  <text transform="translate(120 230)" fill="#555" font-family="CourierNewPSMT, &apos;Courier New&apos;" font-size="11" isolation="isolate"><tspan x="0" y="0">strip_discover -i stripped.json --analyze-false-negatives -o false_neg.tsv</tspan></text>
  <text transform="translate(600 235)" fill="#6b7280" font-family="Arial-ItalicMT, Arial" font-size="10" font-style="italic" isolation="isolate"><tspan x="0" y="0">remaining patterns</tspan></text>
  <path d="" fill="none"/>
  <polygon points="407 247 400 267 393 247 407 247" fill="#666"/>
  <path d="M400,265" fill="#666"/>
  <rect x="100" y="265" width="600" height="100" fill="#f8fafc" stroke="#cbd5e1"/>
  <text transform="translate(120 290)" fill="#333" font-family="Arial-BoldMT, Arial" font-size="12" font-weight="700" isolation="isolate"><tspan x="0" y="0">A2. Search for Known Abbreviations (instruments only)</tspan></text>
  <text transform="translate(120 310)" fill="#555" font-family="CourierNewPSMT, &apos;Courier New&apos;" font-size="11" isolation="isolate"><tspan x="0" y="0">grep -E &apos;\[(PROMIS|Neuro-QOL|MDS-UPDRS|PHQ|GAD|...)\]&apos; stripped.json</tspan></text>
  <text transform="translate(120 330)" fill="#555" font-family="CourierNewPSMT, &apos;Courier New&apos;" font-size="11" isolation="isolate"><tspan x="0" y="0">grep -E &apos;(PROMIS|Neuro-QOL|...) - &apos; stripped.json</tspan></text>
  <text transform="translate(140 355)" fill="#7c3aed" font-family="Arial-ItalicMT, Arial" font-size="10" font-style="italic" isolation="isolate"><tspan x="0" y="0">Catches short bracketed patterns and &quot; - &quot; separators missed by k-mer mining</tspan></text>
  <path d="" fill="none"/>
  <polygon points="407 377 400 397 393 377 407 377" fill="#666"/>
  <path d="M400,395" fill="#666"/>
  <rect x="100" y="395" width="600" height="85" fill="#fef2f2" stroke="#ef4444" stroke-dasharray="8 4" stroke-width="2"/>
  <text transform="translate(120 420)" fill="#333" font-family="Arial-BoldMT, Arial" font-size="12" font-weight="700" isolation="isolate"><tspan x="0" y="0">B. CURATOR REVIEW (human)</tspan></text>
  <text transform="translate(140 440)" fill="#666" font-family="ArialMT, Arial" font-size="10" isolation="isolate"><tspan x="0" y="0">* Review false_neg.tsv patterns and grep results</tspan></text>
  <text transform="translate(140 455)" fill="#666" font-family="ArialMT, Arial" font-size="10" isolation="isolate"><tspan x="0" y="0">* Set &apos;include&apos; column to &apos;yes&apos; for valid patterns</tspan></text>
  <text transform="translate(140 470)" fill="#666" font-family="ArialMT, Arial" font-size="10" isolation="isolate"><tspan x="0" y="0">* Add &apos;name&apos; column with canonical names</tspan></text>
  <text transform="translate(600 470)" fill="#6b7280" font-family="Arial-ItalicMT, Arial" font-size="10" font-style="italic" isolation="isolate"><tspan x="0" y="0">curated false neg</tspan></text>
  <path d="" fill="none"/>
  <polygon points="407 492 400 512 393 492 407 492" fill="#666"/>
  <path d="M400,510" fill="#666"/>
  <rect x="100" y="510" width="600" height="65" fill="#f8fafc" stroke="#cbd5e1"/>
  <text transform="translate(120 535)" fill="#333" font-family="Arial-BoldMT, Arial" font-size="12" font-weight="700" isolation="isolate"><tspan x="0" y="0">C. Import to Config</tspan></text>
  <text transform="translate(120 555)" fill="#555" font-family="CourierNewPSMT, &apos;Courier New&apos;" font-size="11" isolation="isolate"><tspan x="0" y="0">strip_discover --add-to-supplementary curated.tsv</tspan></text>
  <text transform="translate(480 565)" fill="#6b7280" font-family="Arial-ItalicMT, Arial" font-size="10" font-style="italic" isolation="isolate"><tspan x="0" y="0">config/supplementary_patterns.yaml</tspan></text>
  <path d="" fill="none"/>
  <polygon points="407 587 400 607 393 587 407 587" fill="#666"/>
  <path d="M400,605" fill="#666"/>
  <rect x="100" y="605" width="600" height="65" fill="#f8fafc" stroke="#cbd5e1"/>
  <text transform="translate(120 630)" fill="#333" font-family="Arial-BoldMT, Arial" font-size="12" font-weight="700" isolation="isolate"><tspan x="0" y="0">D. Re-mine with New Patterns</tspan></text>
  <text transform="translate(120 650)" fill="#555" font-family="CourierNewPSMT, &apos;Courier New&apos;" font-size="11" isolation="isolate"><tspan x="0" y="0">instrument_miner -i cdes.json -o inst_output/ --extract-supplementary</tspan></text>
  <text transform="translate(600 660)" fill="#6b7280" font-family="Arial-ItalicMT, Arial" font-size="10" font-style="italic" isolation="isolate"><tspan x="0" y="0">updated patterns</tspan></text>
  <path d="" fill="none"/>
  <polygon points="407 682 400 702 393 682 407 682" fill="#666"/>
  <path d="M400,700" fill="#666"/>
  <polygon points="400 700 500 740 400 780 300 740 400 700" fill="#fef3c7" stroke="#f59e0b" stroke-width="2"/>
  <text transform="translate(355.31 735)" fill="#333" font-family="Arial-BoldMT, Arial" font-size="12" font-weight="700" isolation="isolate"><tspan x="0" y="0">False negatives</tspan></text>
  <text transform="translate(365.32 750)" fill="#333" font-family="Arial-BoldMT, Arial" font-size="12" font-weight="700" isolation="isolate"><tspan x="0" y="0">acceptable?</tspan></text>
  <path d="" fill="none"/>
  <polygon points="407 792 400 812 393 792 407 792" fill="#666"/>
  <path d="M400,810" fill="#666"/>
  <text transform="translate(415 800)" fill="#666" font-family="ArialMT, Arial" font-size="10" isolation="isolate"><tspan x="0" y="0">Yes</tspan></text>
  <rect x="325" y="810" width="150" height="30" rx="6" ry="6" fill="#dcfce7" stroke="#22c55e" stroke-width="2"/>
  <text transform="translate(385 830)" fill="#333" font-family="Arial-BoldMT, Arial" font-size="12" font-weight="700" isolation="isolate"><tspan x="0" y="0">Done</tspan></text>
  <path d="" fill="none"/>
  <polygon points="727 170.5 697 160 727 149.5 727 170.5" fill="#f59e0b"/>
  <path d="M700,160" fill="#f59e0b"/>
  <text transform="translate(520 730)" fill="#666" font-family="ArialMT, Arial" font-size="10" isolation="isolate"><tspan x="0" y="0">No</tspan></text>
  <text transform="translate(750 450) rotate(90)" fill="#666" font-family="ArialMT, Arial" font-size="10" isolation="isolate"><tspan x="0" y="0">Repeat</tspan></text>
  <rect x="50" y="760" width="200" height="70" rx="4" ry="4" fill="#fafafa" stroke="#e5e7eb"/>
  <text transform="translate(70 778)" fill="#333" font-family="Arial-BoldMT, Arial" font-size="12" font-weight="700" isolation="isolate"><tspan x="0" y="0">Legend:</tspan></text>
  <rect x="70" y="788" width="15" height="12" fill="#f8fafc" stroke="#cbd5e1"/>
  <text transform="translate(90 798)" fill="#666" font-family="ArialMT, Arial" font-size="10" isolation="isolate"><tspan x="0" y="0">Automated</tspan></text>
  <rect x="70" y="808" width="15" height="12" fill="#fef2f2" stroke="#ef4444" stroke-dasharray="8 4" stroke-width="2"/>
  <text transform="translate(90 818)" fill="#666" font-family="ArialMT, Arial" font-size="10" isolation="isolate"><tspan x="0" y="0">Human review</tspan></text>
  <rect x="150" y="788" width="15" height="12" fill="#fef3c7" stroke="#f59e0b" stroke-width="2"/>
  <text transform="translate(170 798)" fill="#666" font-family="ArialMT, Arial" font-size="10" isolation="isolate"><tspan x="0" y="0">Decision</tspan></text>
  <line x1="150" y1="814" x2="175" y2="814" fill="none" stroke="#f59e0b" stroke-width="3"/>
  <text transform="translate(180 818)" fill="#666" font-family="ArialMT, Arial" font-size="10" isolation="isolate"><tspan x="0" y="0">Loop</tspan></text>
  <polyline points="501.7 740.02 741.96 740.02 741.96 740.02 741.96 160.15 725 160.15" fill="none" stroke="#f59e0b" stroke-width="4"/>
</svg>