<?xml version="1.0" encoding="UTF-8"?>
<svg xmlns="http://www.w3.org/2000/svg" viewBox="0 0 800 950" width="800" height="950">
  <defs>
    <style>
      .title { font: bold 18px sans-serif; fill: #1a1a1a; }
      .subtitle { font: 12px sans-serif; fill: #6b7280; }
      .step-title { font: bold 12px sans-serif; fill: #333333; }
      .step-text { font: 11px monospace; fill: #555555; }
      .detail-text { font: 10px sans-serif; fill: #666666; }
      .arrow { stroke: #666666; stroke-width: 2; fill: none; marker-end: url(#arrowhead); }
      .step-box { fill: #f8fafc; stroke: #cbd5e1; stroke-width: 1; rx: 6; }
      .human-box { fill: #fef2f2; stroke: #ef4444; stroke-width: 2; rx: 6; stroke-dasharray: 8,4; }
      .input-box { fill: #fef3c7; stroke: #f59e0b; stroke-width: 2; rx: 8; }
      .output-box { fill: #dcfce7; stroke: #22c55e; stroke-width: 2; rx: 8; }
      .file-label { font: italic 10px sans-serif; fill: #6b7280; }
      .variant-item { font: 10px sans-serif; fill: #555555; }
    </style>
    <marker id="arrowhead" markerWidth="10" markerHeight="7" refX="9" refY="3.5" orient="auto">
      <polygon points="0 0, 10 3.5, 0 7" fill="#666666"/>
    </marker>
  </defs>

  <!-- Title -->
  <text x="400" y="30" text-anchor="middle" class="title">Pattern Curation Sub-Workflow</text>
  <text x="400" y="50" text-anchor="middle" class="subtitle">Shared between Phase 1 (instruments) and Phase 2 (phrases)</text>

  <!-- Input Box -->
  <rect x="200" y="70" width="400" height="45" class="input-box"/>
  <text x="400" y="92" text-anchor="middle" class="step-title">Input: Raw patterns from mining</text>
  <text x="400" y="107" text-anchor="middle" class="file-label">instruments.tsv or verbatim_phrases.tsv</text>

  <!-- Arrow -->
  <path d="M400,115 L400,145" class="arrow"/>

  <!-- Step 1: Discover with variants -->
  <rect x="100" y="145" width="600" height="170" class="step-box"/>
  <text x="120" y="170" class="step-title">1. Discover Verbatim Occurrences</text>
  <text x="120" y="190" class="step-text">strip_discover -i cdes.json -m CDE -o discovered.tsv</text>
  <text x="120" y="205" class="step-text">    -p mined_patterns.tsv --expand-variants --discover-bare-names</text>

  <!-- Variant expansion details -->
  <rect x="130" y="220" width="540" height="85" fill="#f1f5f9" stroke="#e2e8f0" rx="4"/>
  <text x="150" y="238" class="step-title">Variant expansion includes:</text>
  <text x="160" y="255" class="variant-item">* Spacing around parentheses: "(X)" &lt;-&gt; "( X )"</text>
  <text x="160" y="270" class="variant-item">* Trailing punctuation: "X" &lt;-&gt; "X:" &lt;-&gt; "X - " &lt;-&gt; "X: "</text>
  <text x="160" y="285" class="variant-item">* Possessives: "Parkinson" &lt;-&gt; "Parkinson's"</text>
  <text x="160" y="300" class="variant-item">* Number words: "7" &lt;-&gt; "seven", "30" &lt;-&gt; "thirty"</text>

  <text x="600" y="310" class="file-label">discovered.tsv</text>

  <!-- Arrow -->
  <path d="M400,315 L400,345" class="arrow"/>

  <!-- Step 2: Coalesce -->
  <rect x="100" y="345" width="600" height="120" class="step-box"/>
  <text x="120" y="370" class="step-title">2. Coalesce Redundant Variants</text>
  <text x="120" y="390" class="step-text">pattern_util --coalesce-variants discovered.tsv</text>
  <text x="120" y="405" class="step-text">    -o coalesced.tsv --coalesce-report report.tsv</text>

  <!-- Coalesce details -->
  <rect x="130" y="420" width="540" height="35" fill="#f1f5f9" stroke="#e2e8f0" rx="4"/>
  <text x="150" y="440" class="variant-item">TinyId-aware subsumption: removes patterns whose tinyIds are fully covered by longer patterns</text>

  <text x="600" y="455" class="file-label">coalesced.tsv</text>

  <!-- Arrow -->
  <path d="M400,465 L400,495" class="arrow"/>

  <!-- Step 3: Field Analysis -->
  <rect x="100" y="495" width="600" height="100" class="step-box"/>
  <text x="120" y="520" class="step-title">3. Field Analysis &amp; Filtering</text>
  <text x="120" y="540" class="step-text">pattern_util --field-analysis coalesced.tsv -i cdes.json -m CDE</text>
  <text x="120" y="555" class="step-text">    -o coalesced_fields.tsv --min-field-count 6 --min-tokens 3</text>

  <!-- Field analysis details -->
  <rect x="130" y="565" width="540" height="20" fill="#f1f5f9" stroke="#e2e8f0" rx="4"/>
  <text x="150" y="579" class="variant-item">Adds definition_count, designation_count, field_profile columns; filters by thresholds</text>

  <text x="600" y="590" class="file-label">coalesced_fields.tsv</text>

  <!-- Arrow -->
  <path d="M400,595 L400,625" class="arrow"/>

  <!-- Step 4: Curator Review (human) -->
  <rect x="100" y="625" width="600" height="100" class="human-box"/>
  <text x="120" y="650" class="step-title">4. CURATOR REVIEW (human)</text>
  <text x="140" y="675" class="detail-text">* Remove false positives (accidental pattern matches)</text>
  <text x="140" y="690" class="detail-text">* Add missing patterns discovered manually</text>
  <text x="140" y="705" class="detail-text">* Verify tinyId coverage is complete</text>
  <text x="600" y="715" class="file-label">curated.tsv</text>

  <!-- Arrow -->
  <path d="M400,725 L400,755" class="arrow"/>

  <!-- Output Box -->
  <rect x="200" y="755" width="400" height="65" class="output-box"/>
  <text x="400" y="777" text-anchor="middle" class="step-title">Output: Curated patterns</text>
  <text x="400" y="792" text-anchor="middle" class="file-label">Ready for strip_phrases --clean-remnants</text>
  <text x="400" y="807" text-anchor="middle" class="file-label">--detect-remnants --remnant-report remnants.tsv</text>

  <!-- Legend -->
  <rect x="100" y="840" width="600" height="50" fill="#fafafa" stroke="#e5e7eb" rx="4"/>
  <text x="120" y="860" class="step-title">Legend:</text>
  <rect x="180" y="850" width="20" height="15" class="step-box"/>
  <text x="205" y="862" class="detail-text">Automated step</text>
  <rect x="320" y="850" width="20" height="15" class="human-box"/>
  <text x="345" y="862" class="detail-text">Human review</text>
  <rect x="460" y="850" width="20" height="15" class="input-box"/>
  <text x="485" y="862" class="detail-text">Input</text>
  <rect x="560" y="850" width="20" height="15" class="output-box"/>
  <text x="585" y="862" class="detail-text">Output</text>
</svg>
